999
DXF from OpenSCAD
  0
SECTION
  2
HEADER
  9
$ACADVER
  1
AC1006
  9
$INSBASE
 10
0.0
 20
0.0
 30
0.0
  9
$EXTMIN
 10
217.65
 20
43.65
  9
$EXTMAX
 10
2830.35
 20
456.35
  9
$LINMIN
 10
217.65
 20
43.65
  9
$LINMAX
 10
2830.35
 20
456.35
  0
ENDSEC
  0
SECTION
  2
TABLES
  0
TABLE
  2
LTYPE
 70
1
  0
LTYPE
  2
CONTINUOUS
 70
64
  3
Solid line
 72
65
 73
0
 40
0.000000
  0
ENDTAB
  0
TABLE
  2
LAYER
 70
6
  0
LAYER
  2
0
 70
64
 62
7
  6
CONTINUOUS
  0
ENDTAB
  0
TABLE
  2
STYLE
 70
0
  0
ENDTAB
  0
ENDSEC
  0
SECTION
  2
BLOCKS
  0
ENDSEC
  0
SECTION
  2
ENTITIES
  0
LWPOLYLINE
100
AcDbEntity
  8
0
100
AcDbPolyline
 90
20
 70
1
 10
1300.96
 20
443.961
 10
1302.73
 20
444.863
 10
1304.14
 20
446.268
 10
1305.04
 20
448.038
 10
1305.35
 20
450
 10
1305.04
 20
451.962
 10
1304.14
 20
453.732
 10
1302.73
 20
455.137
 10
1300.96
 20
456.039
 10
1299
 20
456.35
 10
1297.04
 20
456.039
 10
1295.27
 20
455.137
 10
1293.86
 20
453.732
 10
1292.96
 20
451.962
 10
1292.65
 20
450
 10
1292.96
 20
448.038
 10
1293.86
 20
446.268
 10
1295.27
 20
444.863
 10
1297.04
 20
443.961
 10
1299
 20
443.65
  0
LWPOLYLINE
100
AcDbEntity
  8
0
100
AcDbPolyline
 90
20
 70
1
 10
1700.96
 20
443.961
 10
1702.73
 20
444.863
 10
1704.14
 20
446.268
 10
1705.04
 20
448.038
 10
1705.35
 20
450
 10
1705.04
 20
451.962
 10
1704.14
 20
453.732
 10
1702.73
 20
455.137
 10
1700.96
 20
456.039
 10
1699
 20
456.35
 10
1697.04
 20
456.039
 10
1695.27
 20
455.137
 10
1693.86
 20
453.732
 10
1692.96
 20
451.962
 10
1692.65
 20
450
 10
1692.96
 20
448.038
 10
1693.86
 20
446.268
 10
1695.27
 20
444.863
 10
1697.04
 20
443.961
 10
1699
 20
443.65
  0
LWPOLYLINE
100
AcDbEntity
  8
0
100
AcDbPolyline
 90
20
 70
1
 10
2750.96
 20
443.961
 10
2752.73
 20
444.863
 10
2754.14
 20
446.268
 10
2755.04
 20
448.038
 10
2755.35
 20
450
 10
2755.04
 20
451.962
 10
2754.14
 20
453.732
 10
2752.73
 20
455.137
 10
2750.96
 20
456.039
 10
2749
 20
456.35
 10
2747.04
 20
456.039
 10
2745.27
 20
455.137
 10
2743.86
 20
453.732
 10
2742.96
 20
451.962
 10
2742.65
 20
450
 10
2742.96
 20
448.038
 10
2743.86
 20
446.268
 10
2745.27
 20
444.863
 10
2747.04
 20
443.961
 10
2749
 20
443.65
  0
LWPOLYLINE
100
AcDbEntity
  8
0
100
AcDbPolyline
 90
20
 70
1
 10
2700.96
 20
443.961
 10
2702.73
 20
444.863
 10
2704.14
 20
446.268
 10
2705.04
 20
448.038
 10
2705.35
 20
450
 10
2705.04
 20
451.962
 10
2704.14
 20
453.732
 10
2702.73
 20
455.137
 10
2700.96
 20
456.039
 10
2699
 20
456.35
 10
2697.04
 20
456.039
 10
2695.27
 20
455.137
 10
2693.86
 20
453.732
 10
2692.96
 20
451.962
 10
2692.65
 20
450
 10
2692.96
 20
448.038
 10
2693.86
 20
446.268
 10
2695.27
 20
444.863
 10
2697.04
 20
443.961
 10
2699
 20
443.65
  0
LWPOLYLINE
100
AcDbEntity
  8
0
100
AcDbPolyline
 90
20
 70
1
 10
2550.96
 20
443.961
 10
2552.73
 20
444.863
 10
2554.14
 20
446.268
 10
2555.04
 20
448.038
 10
2555.35
 20
450
 10
2555.04
 20
451.962
 10
2554.14
 20
453.732
 10
2552.73
 20
455.137
 10
2550.96
 20
456.039
 10
2549
 20
456.35
 10
2547.04
 20
456.039
 10
2545.27
 20
455.137
 10
2543.86
 20
453.732
 10
2542.96
 20
451.962
 10
2542.65
 20
450
 10
2542.96
 20
448.038
 10
2543.86
 20
446.268
 10
2545.27
 20
444.863
 10
2547.04
 20
443.961
 10
2549
 20
443.65
  0
LWPOLYLINE
100
AcDbEntity
  8
0
100
AcDbPolyline
 90
20
 70
1
 10
2500.96
 20
443.961
 10
2502.73
 20
444.863
 10
2504.14
 20
446.268
 10
2505.04
 20
448.038
 10
2505.35
 20
450
 10
2505.04
 20
451.962
 10
2504.14
 20
453.732
 10
2502.73
 20
455.137
 10
2500.96
 20
456.039
 10
2499
 20
456.35
 10
2497.04
 20
456.039
 10
2495.27
 20
455.137
 10
2493.86
 20
453.732
 10
2492.96
 20
451.962
 10
2492.65
 20
450
 10
2492.96
 20
448.038
 10
2493.86
 20
446.268
 10
2495.27
 20
444.863
 10
2497.04
 20
443.961
 10
2499
 20
443.65
  0
LWPOLYLINE
100
AcDbEntity
  8
0
100
AcDbPolyline
 90
20
 70
1
 10
500.962
 20
443.961
 10
502.732
 20
444.863
 10
504.137
 20
446.268
 10
505.039
 20
448.038
 10
505.35
 20
450
 10
505.039
 20
451.962
 10
504.137
 20
453.732
 10
502.732
 20
455.137
 10
500.962
 20
456.039
 10
499
 20
456.35
 10
497.038
 20
456.039
 10
495.268
 20
455.137
 10
493.863
 20
453.732
 10
492.961
 20
451.962
 10
492.65
 20
450
 10
492.961
 20
448.038
 10
493.863
 20
446.268
 10
495.268
 20
444.863
 10
497.038
 20
443.961
 10
499
 20
443.65
  0
LWPOLYLINE
100
AcDbEntity
  8
0
100
AcDbPolyline
 90
20
 70
1
 10
550.962
 20
443.961
 10
552.732
 20
444.863
 10
554.137
 20
446.268
 10
555.039
 20
448.038
 10
555.35
 20
450
 10
555.039
 20
451.962
 10
554.137
 20
453.732
 10
552.732
 20
455.137
 10
550.962
 20
456.039
 10
549
 20
456.35
 10
547.038
 20
456.039
 10
545.268
 20
455.137
 10
543.863
 20
453.732
 10
542.961
 20
451.962
 10
542.65
 20
450
 10
542.961
 20
448.038
 10
543.863
 20
446.268
 10
545.268
 20
444.863
 10
547.038
 20
443.961
 10
549
 20
443.65
  0
LWPOLYLINE
100
AcDbEntity
  8
0
100
AcDbPolyline
 90
20
 70
1
 10
2350.96
 20
443.961
 10
2352.73
 20
444.863
 10
2354.14
 20
446.268
 10
2355.04
 20
448.038
 10
2355.35
 20
450
 10
2355.04
 20
451.962
 10
2354.14
 20
453.732
 10
2352.73
 20
455.137
 10
2350.96
 20
456.039
 10
2349
 20
456.35
 10
2347.04
 20
456.039
 10
2345.27
 20
455.137
 10
2343.86
 20
453.732
 10
2342.96
 20
451.962
 10
2342.65
 20
450
 10
2342.96
 20
448.038
 10
2343.86
 20
446.268
 10
2345.27
 20
444.863
 10
2347.04
 20
443.961
 10
2349
 20
443.65
  0
LWPOLYLINE
100
AcDbEntity
  8
0
100
AcDbPolyline
 90
20
 70
1
 10
2300.96
 20
443.961
 10
2302.73
 20
444.863
 10
2304.14
 20
446.268
 10
2305.04
 20
448.038
 10
2305.35
 20
450
 10
2305.04
 20
451.962
 10
2304.14
 20
453.732
 10
2302.73
 20
455.137
 10
2300.96
 20
456.039
 10
2299
 20
456.35
 10
2297.04
 20
456.039
 10
2295.27
 20
455.137
 10
2293.86
 20
453.732
 10
2292.96
 20
451.962
 10
2292.65
 20
450
 10
2292.96
 20
448.038
 10
2293.86
 20
446.268
 10
2295.27
 20
444.863
 10
2297.04
 20
443.961
 10
2299
 20
443.65
  0
LWPOLYLINE
100
AcDbEntity
  8
0
100
AcDbPolyline
 90
20
 70
1
 10
1150.96
 20
443.961
 10
1152.73
 20
444.863
 10
1154.14
 20
446.268
 10
1155.04
 20
448.038
 10
1155.35
 20
450
 10
1155.04
 20
451.962
 10
1154.14
 20
453.732
 10
1152.73
 20
455.137
 10
1150.96
 20
456.039
 10
1149
 20
456.35
 10
1147.04
 20
456.039
 10
1145.27
 20
455.137
 10
1143.86
 20
453.732
 10
1142.96
 20
451.962
 10
1142.65
 20
450
 10
1142.96
 20
448.038
 10
1143.86
 20
446.268
 10
1145.27
 20
444.863
 10
1147.04
 20
443.961
 10
1149
 20
443.65
  0
LWPOLYLINE
100
AcDbEntity
  8
0
100
AcDbPolyline
 90
20
 70
1
 10
1100.96
 20
443.961
 10
1102.73
 20
444.863
 10
1104.14
 20
446.268
 10
1105.04
 20
448.038
 10
1105.35
 20
450
 10
1105.04
 20
451.962
 10
1104.14
 20
453.732
 10
1102.73
 20
455.137
 10
1100.96
 20
456.039
 10
1099
 20
456.35
 10
1097.04
 20
456.039
 10
1095.27
 20
455.137
 10
1093.86
 20
453.732
 10
1092.96
 20
451.962
 10
1092.65
 20
450
 10
1092.96
 20
448.038
 10
1093.86
 20
446.268
 10
1095.27
 20
444.863
 10
1097.04
 20
443.961
 10
1099
 20
443.65
  0
LWPOLYLINE
100
AcDbEntity
  8
0
100
AcDbPolyline
 90
20
 70
1
 10
1350.96
 20
443.961
 10
1352.73
 20
444.863
 10
1354.14
 20
446.268
 10
1355.04
 20
448.038
 10
1355.35
 20
450
 10
1355.04
 20
451.962
 10
1354.14
 20
453.732
 10
1352.73
 20
455.137
 10
1350.96
 20
456.039
 10
1349
 20
456.35
 10
1347.04
 20
456.039
 10
1345.27
 20
455.137
 10
1343.86
 20
453.732
 10
1342.96
 20
451.962
 10
1342.65
 20
450
 10
1342.96
 20
448.038
 10
1343.86
 20
446.268
 10
1345.27
 20
444.863
 10
1347.04
 20
443.961
 10
1349
 20
443.65
  0
LWPOLYLINE
100
AcDbEntity
  8
0
100
AcDbPolyline
 90
20
 70
1
 10
1500.96
 20
443.961
 10
1502.73
 20
444.863
 10
1504.14
 20
446.268
 10
1505.04
 20
448.038
 10
1505.35
 20
450
 10
1505.04
 20
451.962
 10
1504.14
 20
453.732
 10
1502.73
 20
455.137
 10
1500.96
 20
456.039
 10
1499
 20
456.35
 10
1497.04
 20
456.039
 10
1495.27
 20
455.137
 10
1493.86
 20
453.732
 10
1492.96
 20
451.962
 10
1492.65
 20
450
 10
1492.96
 20
448.038
 10
1493.86
 20
446.268
 10
1495.27
 20
444.863
 10
1497.04
 20
443.961
 10
1499
 20
443.65
  0
LWPOLYLINE
100
AcDbEntity
  8
0
100
AcDbPolyline
 90
20
 70
1
 10
1550.96
 20
443.961
 10
1552.73
 20
444.863
 10
1554.14
 20
446.268
 10
1555.04
 20
448.038
 10
1555.35
 20
450
 10
1555.04
 20
451.962
 10
1554.14
 20
453.732
 10
1552.73
 20
455.137
 10
1550.96
 20
456.039
 10
1549
 20
456.35
 10
1547.04
 20
456.039
 10
1545.27
 20
455.137
 10
1543.86
 20
453.732
 10
1542.96
 20
451.962
 10
1542.65
 20
450
 10
1542.96
 20
448.038
 10
1543.86
 20
446.268
 10
1545.27
 20
444.863
 10
1547.04
 20
443.961
 10
1549
 20
443.65
  0
LWPOLYLINE
100
AcDbEntity
  8
0
100
AcDbPolyline
 90
20
 70
1
 10
300.962
 20
443.961
 10
302.732
 20
444.863
 10
304.137
 20
446.268
 10
305.039
 20
448.038
 10
305.35
 20
450
 10
305.039
 20
451.962
 10
304.137
 20
453.732
 10
302.732
 20
455.137
 10
300.962
 20
456.039
 10
299
 20
456.35
 10
297.038
 20
456.039
 10
295.268
 20
455.137
 10
293.863
 20
453.732
 10
292.961
 20
451.962
 10
292.65
 20
450
 10
292.961
 20
448.038
 10
293.863
 20
446.268
 10
295.268
 20
444.863
 10
297.038
 20
443.961
 10
299
 20
443.65
  0
LWPOLYLINE
100
AcDbEntity
  8
0
100
AcDbPolyline
 90
20
 70
1
 10
2150.96
 20
443.961
 10
2152.73
 20
444.863
 10
2154.14
 20
446.268
 10
2155.04
 20
448.038
 10
2155.35
 20
450
 10
2155.04
 20
451.962
 10
2154.14
 20
453.732
 10
2152.73
 20
455.137
 10
2150.96
 20
456.039
 10
2149
 20
456.35
 10
2147.04
 20
456.039
 10
2145.27
 20
455.137
 10
2143.86
 20
453.732
 10
2142.96
 20
451.962
 10
2142.65
 20
450
 10
2142.96
 20
448.038
 10
2143.86
 20
446.268
 10
2145.27
 20
444.863
 10
2147.04
 20
443.961
 10
2149
 20
443.65
  0
LWPOLYLINE
100
AcDbEntity
  8
0
100
AcDbPolyline
 90
20
 70
1
 10
2100.96
 20
443.961
 10
2102.73
 20
444.863
 10
2104.14
 20
446.268
 10
2105.04
 20
448.038
 10
2105.35
 20
450
 10
2105.04
 20
451.962
 10
2104.14
 20
453.732
 10
2102.73
 20
455.137
 10
2100.96
 20
456.039
 10
2099
 20
456.35
 10
2097.04
 20
456.039
 10
2095.27
 20
455.137
 10
2093.86
 20
453.732
 10
2092.96
 20
451.962
 10
2092.65
 20
450
 10
2092.96
 20
448.038
 10
2093.86
 20
446.268
 10
2095.27
 20
444.863
 10
2097.04
 20
443.961
 10
2099
 20
443.65
  0
LWPOLYLINE
100
AcDbEntity
  8
0
100
AcDbPolyline
 90
20
 70
1
 10
700.962
 20
443.961
 10
702.732
 20
444.863
 10
704.137
 20
446.268
 10
705.039
 20
448.038
 10
705.35
 20
450
 10
705.039
 20
451.962
 10
704.137
 20
453.732
 10
702.732
 20
455.137
 10
700.962
 20
456.039
 10
699
 20
456.35
 10
697.038
 20
456.039
 10
695.268
 20
455.137
 10
693.863
 20
453.732
 10
692.961
 20
451.962
 10
692.65
 20
450
 10
692.961
 20
448.038
 10
693.863
 20
446.268
 10
695.268
 20
444.863
 10
697.038
 20
443.961
 10
699
 20
443.65
  0
LWPOLYLINE
100
AcDbEntity
  8
0
100
AcDbPolyline
 90
20
 70
1
 10
750.962
 20
443.961
 10
752.732
 20
444.863
 10
754.137
 20
446.268
 10
755.039
 20
448.038
 10
755.35
 20
450
 10
755.039
 20
451.962
 10
754.137
 20
453.732
 10
752.732
 20
455.137
 10
750.962
 20
456.039
 10
749
 20
456.35
 10
747.038
 20
456.039
 10
745.268
 20
455.137
 10
743.863
 20
453.732
 10
742.961
 20
451.962
 10
742.65
 20
450
 10
742.961
 20
448.038
 10
743.863
 20
446.268
 10
745.268
 20
444.863
 10
747.038
 20
443.961
 10
749
 20
443.65
  0
LWPOLYLINE
100
AcDbEntity
  8
0
100
AcDbPolyline
 90
20
 70
1
 10
350.962
 20
443.961
 10
352.732
 20
444.863
 10
354.137
 20
446.268
 10
355.039
 20
448.038
 10
355.35
 20
450
 10
355.039
 20
451.962
 10
354.137
 20
453.732
 10
352.732
 20
455.137
 10
350.962
 20
456.039
 10
349
 20
456.35
 10
347.038
 20
456.039
 10
345.268
 20
455.137
 10
343.863
 20
453.732
 10
342.961
 20
451.962
 10
342.65
 20
450
 10
342.961
 20
448.038
 10
343.863
 20
446.268
 10
345.268
 20
444.863
 10
347.038
 20
443.961
 10
349
 20
443.65
  0
LWPOLYLINE
100
AcDbEntity
  8
0
100
AcDbPolyline
 90
20
 70
1
 10
950.962
 20
443.961
 10
952.732
 20
444.863
 10
954.137
 20
446.268
 10
955.039
 20
448.038
 10
955.35
 20
450
 10
955.039
 20
451.962
 10
954.137
 20
453.732
 10
952.732
 20
455.137
 10
950.962
 20
456.039
 10
949
 20
456.35
 10
947.038
 20
456.039
 10
945.268
 20
455.137
 10
943.863
 20
453.732
 10
942.961
 20
451.962
 10
942.65
 20
450
 10
942.961
 20
448.038
 10
943.863
 20
446.268
 10
945.268
 20
444.863
 10
947.038
 20
443.961
 10
949
 20
443.65
  0
LWPOLYLINE
100
AcDbEntity
  8
0
100
AcDbPolyline
 90
20
 70
1
 10
1950.96
 20
443.961
 10
1952.73
 20
444.863
 10
1954.14
 20
446.268
 10
1955.04
 20
448.038
 10
1955.35
 20
450
 10
1955.04
 20
451.962
 10
1954.14
 20
453.732
 10
1952.73
 20
455.137
 10
1950.96
 20
456.039
 10
1949
 20
456.35
 10
1947.04
 20
456.039
 10
1945.27
 20
455.137
 10
1943.86
 20
453.732
 10
1942.96
 20
451.962
 10
1942.65
 20
450
 10
1942.96
 20
448.038
 10
1943.86
 20
446.268
 10
1945.27
 20
444.863
 10
1947.04
 20
443.961
 10
1949
 20
443.65
  0
LWPOLYLINE
100
AcDbEntity
  8
0
100
AcDbPolyline
 90
20
 70
1
 10
1900.96
 20
443.961
 10
1902.73
 20
444.863
 10
1904.14
 20
446.268
 10
1905.04
 20
448.038
 10
1905.35
 20
450
 10
1905.04
 20
451.962
 10
1904.14
 20
453.732
 10
1902.73
 20
455.137
 10
1900.96
 20
456.039
 10
1899
 20
456.35
 10
1897.04
 20
456.039
 10
1895.27
 20
455.137
 10
1893.86
 20
453.732
 10
1892.96
 20
451.962
 10
1892.65
 20
450
 10
1892.96
 20
448.038
 10
1893.86
 20
446.268
 10
1895.27
 20
444.863
 10
1897.04
 20
443.961
 10
1899
 20
443.65
  0
LWPOLYLINE
100
AcDbEntity
  8
0
100
AcDbPolyline
 90
20
 70
1
 10
900.962
 20
443.961
 10
902.732
 20
444.863
 10
904.137
 20
446.268
 10
905.039
 20
448.038
 10
905.35
 20
450
 10
905.039
 20
451.962
 10
904.137
 20
453.732
 10
902.732
 20
455.137
 10
900.962
 20
456.039
 10
899
 20
456.35
 10
897.038
 20
456.039
 10
895.268
 20
455.137
 10
893.863
 20
453.732
 10
892.961
 20
451.962
 10
892.65
 20
450
 10
892.961
 20
448.038
 10
893.863
 20
446.268
 10
895.268
 20
444.863
 10
897.038
 20
443.961
 10
899
 20
443.65
  0
LWPOLYLINE
100
AcDbEntity
  8
0
100
AcDbPolyline
 90
20
 70
1
 10
1750.96
 20
443.961
 10
1752.73
 20
444.863
 10
1754.14
 20
446.268
 10
1755.04
 20
448.038
 10
1755.35
 20
450
 10
1755.04
 20
451.962
 10
1754.14
 20
453.732
 10
1752.73
 20
455.137
 10
1750.96
 20
456.039
 10
1749
 20
456.35
 10
1747.04
 20
456.039
 10
1745.27
 20
455.137
 10
1743.86
 20
453.732
 10
1742.96
 20
451.962
 10
1742.65
 20
450
 10
1742.96
 20
448.038
 10
1743.86
 20
446.268
 10
1745.27
 20
444.863
 10
1747.04
 20
443.961
 10
1749
 20
443.65
  0
LWPOLYLINE
100
AcDbEntity
  8
0
100
AcDbPolyline
 90
18
 70
1
 10
526.778
 20
445.188
 10
528.256
 20
446.429
 10
529.221
 20
448.1
 10
529.556
 20
450
 10
529.221
 20
451.9
 10
528.256
 20
453.571
 10
526.778
 20
454.812
 10
524.965
 20
455.472
 10
523.035
 20
455.472
 10
521.222
 20
454.812
 10
519.744
 20
453.571
 10
518.779
 20
451.9
 10
518.444
 20
450
 10
518.779
 20
448.1
 10
519.744
 20
446.429
 10
521.222
 20
445.188
 10
523.035
 20
444.528
 10
524.965
 20
444.528
  0
LWPOLYLINE
100
AcDbEntity
  8
0
100
AcDbPolyline
 90
18
 70
1
 10
1726.78
 20
445.188
 10
1728.26
 20
446.429
 10
1729.22
 20
448.1
 10
1729.56
 20
450
 10
1729.22
 20
451.9
 10
1728.26
 20
453.571
 10
1726.78
 20
454.812
 10
1724.96
 20
455.472
 10
1723.04
 20
455.472
 10
1721.22
 20
454.812
 10
1719.74
 20
453.571
 10
1718.78
 20
451.9
 10
1718.44
 20
450
 10
1718.78
 20
448.1
 10
1719.74
 20
446.429
 10
1721.22
 20
445.188
 10
1723.04
 20
444.528
 10
1724.96
 20
444.528
  0
LWPOLYLINE
100
AcDbEntity
  8
0
100
AcDbPolyline
 90
18
 70
1
 10
1926.78
 20
445.188
 10
1928.26
 20
446.429
 10
1929.22
 20
448.1
 10
1929.56
 20
450
 10
1929.22
 20
451.9
 10
1928.26
 20
453.571
 10
1926.78
 20
454.812
 10
1924.96
 20
455.472
 10
1923.04
 20
455.472
 10
1921.22
 20
454.812
 10
1919.74
 20
453.571
 10
1918.78
 20
451.9
 10
1918.44
 20
450
 10
1918.78
 20
448.1
 10
1919.74
 20
446.429
 10
1921.22
 20
445.188
 10
1923.04
 20
444.528
 10
1924.96
 20
444.528
  0
LWPOLYLINE
100
AcDbEntity
  8
0
100
AcDbPolyline
 90
18
 70
1
 10
926.778
 20
445.188
 10
928.256
 20
446.429
 10
929.221
 20
448.1
 10
929.556
 20
450
 10
929.221
 20
451.9
 10
928.256
 20
453.571
 10
926.778
 20
454.812
 10
924.965
 20
455.472
 10
923.035
 20
455.472
 10
921.222
 20
454.812
 10
919.744
 20
453.571
 10
918.779
 20
451.9
 10
918.444
 20
450
 10
918.779
 20
448.1
 10
919.744
 20
446.429
 10
921.222
 20
445.188
 10
923.035
 20
444.528
 10
924.965
 20
444.528
  0
LWPOLYLINE
100
AcDbEntity
  8
0
100
AcDbPolyline
 90
18
 70
1
 10
2126.78
 20
445.188
 10
2128.26
 20
446.429
 10
2129.22
 20
448.1
 10
2129.56
 20
450
 10
2129.22
 20
451.9
 10
2128.26
 20
453.571
 10
2126.78
 20
454.812
 10
2124.96
 20
455.472
 10
2123.04
 20
455.472
 10
2121.22
 20
454.812
 10
2119.74
 20
453.571
 10
2118.78
 20
451.9
 10
2118.44
 20
450
 10
2118.78
 20
448.1
 10
2119.74
 20
446.429
 10
2121.22
 20
445.188
 10
2123.04
 20
444.528
 10
2124.96
 20
444.528
  0
LWPOLYLINE
100
AcDbEntity
  8
0
100
AcDbPolyline
 90
18
 70
1
 10
1526.78
 20
445.188
 10
1528.26
 20
446.429
 10
1529.22
 20
448.1
 10
1529.56
 20
450
 10
1529.22
 20
451.9
 10
1528.26
 20
453.571
 10
1526.78
 20
454.812
 10
1524.96
 20
455.472
 10
1523.04
 20
455.472
 10
1521.22
 20
454.812
 10
1519.74
 20
453.571
 10
1518.78
 20
451.9
 10
1518.44
 20
450
 10
1518.78
 20
448.1
 10
1519.74
 20
446.429
 10
1521.22
 20
445.188
 10
1523.04
 20
444.528
 10
1524.96
 20
444.528
  0
LWPOLYLINE
100
AcDbEntity
  8
0
100
AcDbPolyline
 90
18
 70
1
 10
2326.78
 20
445.188
 10
2328.26
 20
446.429
 10
2329.22
 20
448.1
 10
2329.56
 20
450
 10
2329.22
 20
451.9
 10
2328.26
 20
453.571
 10
2326.78
 20
454.812
 10
2324.96
 20
455.472
 10
2323.04
 20
455.472
 10
2321.22
 20
454.812
 10
2319.74
 20
453.571
 10
2318.78
 20
451.9
 10
2318.44
 20
450
 10
2318.78
 20
448.1
 10
2319.74
 20
446.429
 10
2321.22
 20
445.188
 10
2323.04
 20
444.528
 10
2324.96
 20
444.528
  0
LWPOLYLINE
100
AcDbEntity
  8
0
100
AcDbPolyline
 90
18
 70
1
 10
726.778
 20
445.188
 10
728.256
 20
446.429
 10
729.221
 20
448.1
 10
729.556
 20
450
 10
729.221
 20
451.9
 10
728.256
 20
453.571
 10
726.778
 20
454.812
 10
724.965
 20
455.472
 10
723.035
 20
455.472
 10
721.222
 20
454.812
 10
719.744
 20
453.571
 10
718.779
 20
451.9
 10
718.444
 20
450
 10
718.779
 20
448.1
 10
719.744
 20
446.429
 10
721.222
 20
445.188
 10
723.035
 20
444.528
 10
724.965
 20
444.528
  0
LWPOLYLINE
100
AcDbEntity
  8
0
100
AcDbPolyline
 90
18
 70
1
 10
1326.78
 20
445.188
 10
1328.26
 20
446.429
 10
1329.22
 20
448.1
 10
1329.56
 20
450
 10
1329.22
 20
451.9
 10
1328.26
 20
453.571
 10
1326.78
 20
454.812
 10
1324.96
 20
455.472
 10
1323.04
 20
455.472
 10
1321.22
 20
454.812
 10
1319.74
 20
453.571
 10
1318.78
 20
451.9
 10
1318.44
 20
450
 10
1318.78
 20
448.1
 10
1319.74
 20
446.429
 10
1321.22
 20
445.188
 10
1323.04
 20
444.528
 10
1324.96
 20
444.528
  0
LWPOLYLINE
100
AcDbEntity
  8
0
100
AcDbPolyline
 90
18
 70
1
 10
2526.78
 20
445.188
 10
2528.26
 20
446.429
 10
2529.22
 20
448.1
 10
2529.56
 20
450
 10
2529.22
 20
451.9
 10
2528.26
 20
453.571
 10
2526.78
 20
454.812
 10
2524.96
 20
455.472
 10
2523.04
 20
455.472
 10
2521.22
 20
454.812
 10
2519.74
 20
453.571
 10
2518.78
 20
451.9
 10
2518.44
 20
450
 10
2518.78
 20
448.1
 10
2519.74
 20
446.429
 10
2521.22
 20
445.188
 10
2523.04
 20
444.528
 10
2524.96
 20
444.528
  0
LWPOLYLINE
100
AcDbEntity
  8
0
100
AcDbPolyline
 90
18
 70
1
 10
2726.78
 20
445.188
 10
2728.26
 20
446.429
 10
2729.22
 20
448.1
 10
2729.56
 20
450
 10
2729.22
 20
451.9
 10
2728.26
 20
453.571
 10
2726.78
 20
454.812
 10
2724.96
 20
455.472
 10
2723.04
 20
455.472
 10
2721.22
 20
454.812
 10
2719.74
 20
453.571
 10
2718.78
 20
451.9
 10
2718.44
 20
450
 10
2718.78
 20
448.1
 10
2719.74
 20
446.429
 10
2721.22
 20
445.188
 10
2723.04
 20
444.528
 10
2724.96
 20
444.528
  0
LWPOLYLINE
100
AcDbEntity
  8
0
100
AcDbPolyline
 90
18
 70
1
 10
326.778
 20
445.188
 10
328.256
 20
446.429
 10
329.221
 20
448.1
 10
329.556
 20
450
 10
329.221
 20
451.9
 10
328.256
 20
453.571
 10
326.778
 20
454.812
 10
324.965
 20
455.472
 10
323.035
 20
455.472
 10
321.222
 20
454.812
 10
319.744
 20
453.571
 10
318.779
 20
451.9
 10
318.444
 20
450
 10
318.779
 20
448.1
 10
319.744
 20
446.429
 10
321.222
 20
445.188
 10
323.035
 20
444.528
 10
324.965
 20
444.528
  0
LWPOLYLINE
100
AcDbEntity
  8
0
100
AcDbPolyline
 90
18
 70
1
 10
1126.78
 20
445.188
 10
1128.26
 20
446.429
 10
1129.22
 20
448.1
 10
1129.56
 20
450
 10
1129.22
 20
451.9
 10
1128.26
 20
453.571
 10
1126.78
 20
454.812
 10
1124.96
 20
455.472
 10
1123.04
 20
455.472
 10
1121.22
 20
454.812
 10
1119.74
 20
453.571
 10
1118.78
 20
451.9
 10
1118.44
 20
450
 10
1118.78
 20
448.1
 10
1119.74
 20
446.429
 10
1121.22
 20
445.188
 10
1123.04
 20
444.528
 10
1124.96
 20
444.528
  0
LWPOLYLINE
100
AcDbEntity
  8
0
100
AcDbPolyline
 90
20
 70
1
 10
225.962
 20
363.961
 10
227.732
 20
364.863
 10
229.137
 20
366.268
 10
230.039
 20
368.038
 10
230.35
 20
370
 10
230.039
 20
371.962
 10
229.137
 20
373.732
 10
227.732
 20
375.137
 10
225.962
 20
376.039
 10
224
 20
376.35
 10
222.038
 20
376.039
 10
220.268
 20
375.137
 10
218.863
 20
373.732
 10
217.961
 20
371.962
 10
217.65
 20
370
 10
217.961
 20
368.038
 10
218.863
 20
366.268
 10
220.268
 20
364.863
 10
222.038
 20
363.961
 10
224
 20
363.65
  0
LWPOLYLINE
100
AcDbEntity
  8
0
100
AcDbPolyline
 90
20
 70
1
 10
1425.96
 20
363.961
 10
1427.73
 20
364.863
 10
1429.14
 20
366.268
 10
1430.04
 20
368.038
 10
1430.35
 20
370
 10
1430.04
 20
371.962
 10
1429.14
 20
373.732
 10
1427.73
 20
375.137
 10
1425.96
 20
376.039
 10
1424
 20
376.35
 10
1422.04
 20
376.039
 10
1420.27
 20
375.137
 10
1418.86
 20
373.732
 10
1417.96
 20
371.962
 10
1417.65
 20
370
 10
1417.96
 20
368.038
 10
1418.86
 20
366.268
 10
1420.27
 20
364.863
 10
1422.04
 20
363.961
 10
1424
 20
363.65
  0
LWPOLYLINE
100
AcDbEntity
  8
0
100
AcDbPolyline
 90
20
 70
1
 10
425.962
 20
363.961
 10
427.732
 20
364.863
 10
429.137
 20
366.268
 10
430.039
 20
368.038
 10
430.35
 20
370
 10
430.039
 20
371.962
 10
429.137
 20
373.732
 10
427.732
 20
375.137
 10
425.962
 20
376.039
 10
424
 20
376.35
 10
422.038
 20
376.039
 10
420.268
 20
375.137
 10
418.863
 20
373.732
 10
417.961
 20
371.962
 10
417.65
 20
370
 10
417.961
 20
368.038
 10
418.863
 20
366.268
 10
420.268
 20
364.863
 10
422.038
 20
363.961
 10
424
 20
363.65
  0
LWPOLYLINE
100
AcDbEntity
  8
0
100
AcDbPolyline
 90
20
 70
1
 10
1225.96
 20
363.961
 10
1227.73
 20
364.863
 10
1229.14
 20
366.268
 10
1230.04
 20
368.038
 10
1230.35
 20
370
 10
1230.04
 20
371.962
 10
1229.14
 20
373.732
 10
1227.73
 20
375.137
 10
1225.96
 20
376.039
 10
1224
 20
376.35
 10
1222.04
 20
376.039
 10
1220.27
 20
375.137
 10
1218.86
 20
373.732
 10
1217.96
 20
371.962
 10
1217.65
 20
370
 10
1217.96
 20
368.038
 10
1218.86
 20
366.268
 10
1220.27
 20
364.863
 10
1222.04
 20
363.961
 10
1224
 20
363.65
  0
LWPOLYLINE
100
AcDbEntity
  8
0
100
AcDbPolyline
 90
20
 70
1
 10
825.962
 20
363.961
 10
827.732
 20
364.863
 10
829.137
 20
366.268
 10
830.039
 20
368.038
 10
830.35
 20
370
 10
830.039
 20
371.962
 10
829.137
 20
373.732
 10
827.732
 20
375.137
 10
825.962
 20
376.039
 10
824
 20
376.35
 10
822.038
 20
376.039
 10
820.268
 20
375.137
 10
818.863
 20
373.732
 10
817.961
 20
371.962
 10
817.65
 20
370
 10
817.961
 20
368.038
 10
818.863
 20
366.268
 10
820.268
 20
364.863
 10
822.038
 20
363.961
 10
824
 20
363.65
  0
LWPOLYLINE
100
AcDbEntity
  8
0
100
AcDbPolyline
 90
20
 70
1
 10
1025.96
 20
363.961
 10
1027.73
 20
364.863
 10
1029.14
 20
366.268
 10
1030.04
 20
368.038
 10
1030.35
 20
370
 10
1030.04
 20
371.962
 10
1029.14
 20
373.732
 10
1027.73
 20
375.137
 10
1025.96
 20
376.039
 10
1024
 20
376.35
 10
1022.04
 20
376.039
 10
1020.27
 20
375.137
 10
1018.86
 20
373.732
 10
1017.96
 20
371.962
 10
1017.65
 20
370
 10
1017.96
 20
368.038
 10
1018.86
 20
366.268
 10
1020.27
 20
364.863
 10
1022.04
 20
363.961
 10
1024
 20
363.65
  0
LWPOLYLINE
100
AcDbEntity
  8
0
100
AcDbPolyline
 90
20
 70
1
 10
2825.96
 20
363.961
 10
2827.73
 20
364.863
 10
2829.14
 20
366.268
 10
2830.04
 20
368.038
 10
2830.35
 20
370
 10
2830.04
 20
371.962
 10
2829.14
 20
373.732
 10
2827.73
 20
375.137
 10
2825.96
 20
376.039
 10
2824
 20
376.35
 10
2822.04
 20
376.039
 10
2820.27
 20
375.137
 10
2818.86
 20
373.732
 10
2817.96
 20
371.962
 10
2817.65
 20
370
 10
2817.96
 20
368.038
 10
2818.86
 20
366.268
 10
2820.27
 20
364.863
 10
2822.04
 20
363.961
 10
2824
 20
363.65
  0
LWPOLYLINE
100
AcDbEntity
  8
0
100
AcDbPolyline
 90
20
 70
1
 10
2625.96
 20
363.961
 10
2627.73
 20
364.863
 10
2629.14
 20
366.268
 10
2630.04
 20
368.038
 10
2630.35
 20
370
 10
2630.04
 20
371.962
 10
2629.14
 20
373.732
 10
2627.73
 20
375.137
 10
2625.96
 20
376.039
 10
2624
 20
376.35
 10
2622.04
 20
376.039
 10
2620.27
 20
375.137
 10
2618.86
 20
373.732
 10
2617.96
 20
371.962
 10
2617.65
 20
370
 10
2617.96
 20
368.038
 10
2618.86
 20
366.268
 10
2620.27
 20
364.863
 10
2622.04
 20
363.961
 10
2624
 20
363.65
  0
LWPOLYLINE
100
AcDbEntity
  8
0
100
AcDbPolyline
 90
20
 70
1
 10
2425.96
 20
363.961
 10
2427.73
 20
364.863
 10
2429.14
 20
366.268
 10
2430.04
 20
368.038
 10
2430.35
 20
370
 10
2430.04
 20
371.962
 10
2429.14
 20
373.732
 10
2427.73
 20
375.137
 10
2425.96
 20
376.039
 10
2424
 20
376.35
 10
2422.04
 20
376.039
 10
2420.27
 20
375.137
 10
2418.86
 20
373.732
 10
2417.96
 20
371.962
 10
2417.65
 20
370
 10
2417.96
 20
368.038
 10
2418.86
 20
366.268
 10
2420.27
 20
364.863
 10
2422.04
 20
363.961
 10
2424
 20
363.65
  0
LWPOLYLINE
100
AcDbEntity
  8
0
100
AcDbPolyline
 90
20
 70
1
 10
2225.96
 20
363.961
 10
2227.73
 20
364.863
 10
2229.14
 20
366.268
 10
2230.04
 20
368.038
 10
2230.35
 20
370
 10
2230.04
 20
371.962
 10
2229.14
 20
373.732
 10
2227.73
 20
375.137
 10
2225.96
 20
376.039
 10
2224
 20
376.35
 10
2222.04
 20
376.039
 10
2220.27
 20
375.137
 10
2218.86
 20
373.732
 10
2217.96
 20
371.962
 10
2217.65
 20
370
 10
2217.96
 20
368.038
 10
2218.86
 20
366.268
 10
2220.27
 20
364.863
 10
2222.04
 20
363.961
 10
2224
 20
363.65
  0
LWPOLYLINE
100
AcDbEntity
  8
0
100
AcDbPolyline
 90
20
 70
1
 10
2025.96
 20
363.961
 10
2027.73
 20
364.863
 10
2029.14
 20
366.268
 10
2030.04
 20
368.038
 10
2030.35
 20
370
 10
2030.04
 20
371.962
 10
2029.14
 20
373.732
 10
2027.73
 20
375.137
 10
2025.96
 20
376.039
 10
2024
 20
376.35
 10
2022.04
 20
376.039
 10
2020.27
 20
375.137
 10
2018.86
 20
373.732
 10
2017.96
 20
371.962
 10
2017.65
 20
370
 10
2017.96
 20
368.038
 10
2018.86
 20
366.268
 10
2020.27
 20
364.863
 10
2022.04
 20
363.961
 10
2024
 20
363.65
  0
LWPOLYLINE
100
AcDbEntity
  8
0
100
AcDbPolyline
 90
20
 70
1
 10
1825.96
 20
363.961
 10
1827.73
 20
364.863
 10
1829.14
 20
366.268
 10
1830.04
 20
368.038
 10
1830.35
 20
370
 10
1830.04
 20
371.962
 10
1829.14
 20
373.732
 10
1827.73
 20
375.137
 10
1825.96
 20
376.039
 10
1824
 20
376.35
 10
1822.04
 20
376.039
 10
1820.27
 20
375.137
 10
1818.86
 20
373.732
 10
1817.96
 20
371.962
 10
1817.65
 20
370
 10
1817.96
 20
368.038
 10
1818.86
 20
366.268
 10
1820.27
 20
364.863
 10
1822.04
 20
363.961
 10
1824
 20
363.65
  0
LWPOLYLINE
100
AcDbEntity
  8
0
100
AcDbPolyline
 90
20
 70
1
 10
625.962
 20
363.961
 10
627.732
 20
364.863
 10
629.137
 20
366.268
 10
630.039
 20
368.038
 10
630.35
 20
370
 10
630.039
 20
371.962
 10
629.137
 20
373.732
 10
627.732
 20
375.137
 10
625.962
 20
376.039
 10
624
 20
376.35
 10
622.038
 20
376.039
 10
620.268
 20
375.137
 10
618.863
 20
373.732
 10
617.961
 20
371.962
 10
617.65
 20
370
 10
617.961
 20
368.038
 10
618.863
 20
366.268
 10
620.268
 20
364.863
 10
622.038
 20
363.961
 10
624
 20
363.65
  0
LWPOLYLINE
100
AcDbEntity
  8
0
100
AcDbPolyline
 90
20
 70
1
 10
1625.96
 20
363.961
 10
1627.73
 20
364.863
 10
1629.14
 20
366.268
 10
1630.04
 20
368.038
 10
1630.35
 20
370
 10
1630.04
 20
371.962
 10
1629.14
 20
373.732
 10
1627.73
 20
375.137
 10
1625.96
 20
376.039
 10
1624
 20
376.35
 10
1622.04
 20
376.039
 10
1620.27
 20
375.137
 10
1618.86
 20
373.732
 10
1617.96
 20
371.962
 10
1617.65
 20
370
 10
1617.96
 20
368.038
 10
1618.86
 20
366.268
 10
1620.27
 20
364.863
 10
1622.04
 20
363.961
 10
1624
 20
363.65
  0
LWPOLYLINE
100
AcDbEntity
  8
0
100
AcDbPolyline
 90
18
 70
1
 10
1226.78
 20
345.188
 10
1228.26
 20
346.429
 10
1229.22
 20
348.1
 10
1229.56
 20
350
 10
1229.22
 20
351.9
 10
1228.26
 20
353.571
 10
1226.78
 20
354.812
 10
1224.96
 20
355.472
 10
1223.04
 20
355.472
 10
1221.22
 20
354.812
 10
1219.74
 20
353.571
 10
1218.78
 20
351.9
 10
1218.44
 20
350
 10
1218.78
 20
348.1
 10
1219.74
 20
346.429
 10
1221.22
 20
345.188
 10
1223.04
 20
344.528
 10
1224.96
 20
344.528
  0
LWPOLYLINE
100
AcDbEntity
  8
0
100
AcDbPolyline
 90
18
 70
1
 10
1626.78
 20
345.188
 10
1628.26
 20
346.429
 10
1629.22
 20
348.1
 10
1629.56
 20
350
 10
1629.22
 20
351.9
 10
1628.26
 20
353.571
 10
1626.78
 20
354.812
 10
1624.96
 20
355.472
 10
1623.04
 20
355.472
 10
1621.22
 20
354.812
 10
1619.74
 20
353.571
 10
1618.78
 20
351.9
 10
1618.44
 20
350
 10
1618.78
 20
348.1
 10
1619.74
 20
346.429
 10
1621.22
 20
345.188
 10
1623.04
 20
344.528
 10
1624.96
 20
344.528
  0
LWPOLYLINE
100
AcDbEntity
  8
0
100
AcDbPolyline
 90
18
 70
1
 10
2226.78
 20
345.188
 10
2228.26
 20
346.429
 10
2229.22
 20
348.1
 10
2229.56
 20
350
 10
2229.22
 20
351.9
 10
2228.26
 20
353.571
 10
2226.78
 20
354.812
 10
2224.96
 20
355.472
 10
2223.04
 20
355.472
 10
2221.22
 20
354.812
 10
2219.74
 20
353.571
 10
2218.78
 20
351.9
 10
2218.44
 20
350
 10
2218.78
 20
348.1
 10
2219.74
 20
346.429
 10
2221.22
 20
345.188
 10
2223.04
 20
344.528
 10
2224.96
 20
344.528
  0
LWPOLYLINE
100
AcDbEntity
  8
0
100
AcDbPolyline
 90
18
 70
1
 10
1426.78
 20
345.188
 10
1428.26
 20
346.429
 10
1429.22
 20
348.1
 10
1429.56
 20
350
 10
1429.22
 20
351.9
 10
1428.26
 20
353.571
 10
1426.78
 20
354.812
 10
1424.96
 20
355.472
 10
1423.04
 20
355.472
 10
1421.22
 20
354.812
 10
1419.74
 20
353.571
 10
1418.78
 20
351.9
 10
1418.44
 20
350
 10
1418.78
 20
348.1
 10
1419.74
 20
346.429
 10
1421.22
 20
345.188
 10
1423.04
 20
344.528
 10
1424.96
 20
344.528
  0
LWPOLYLINE
100
AcDbEntity
  8
0
100
AcDbPolyline
 90
18
 70
1
 10
2826.78
 20
345.188
 10
2828.26
 20
346.429
 10
2829.22
 20
348.1
 10
2829.56
 20
350
 10
2829.22
 20
351.9
 10
2828.26
 20
353.571
 10
2826.78
 20
354.812
 10
2824.96
 20
355.472
 10
2823.04
 20
355.472
 10
2821.22
 20
354.812
 10
2819.74
 20
353.571
 10
2818.78
 20
351.9
 10
2818.44
 20
350
 10
2818.78
 20
348.1
 10
2819.74
 20
346.429
 10
2821.22
 20
345.188
 10
2823.04
 20
344.528
 10
2824.96
 20
344.528
  0
LWPOLYLINE
100
AcDbEntity
  8
0
100
AcDbPolyline
 90
18
 70
1
 10
226.778
 20
345.188
 10
228.256
 20
346.429
 10
229.221
 20
348.1
 10
229.556
 20
350
 10
229.221
 20
351.9
 10
228.256
 20
353.571
 10
226.778
 20
354.812
 10
224.965
 20
355.472
 10
223.035
 20
355.472
 10
221.222
 20
354.812
 10
219.744
 20
353.571
 10
218.779
 20
351.9
 10
218.444
 20
350
 10
218.779
 20
348.1
 10
219.744
 20
346.429
 10
221.222
 20
345.188
 10
223.035
 20
344.528
 10
224.965
 20
344.528
  0
LWPOLYLINE
100
AcDbEntity
  8
0
100
AcDbPolyline
 90
18
 70
1
 10
826.778
 20
345.188
 10
828.256
 20
346.429
 10
829.221
 20
348.1
 10
829.556
 20
350
 10
829.221
 20
351.9
 10
828.256
 20
353.571
 10
826.778
 20
354.812
 10
824.965
 20
355.472
 10
823.035
 20
355.472
 10
821.222
 20
354.812
 10
819.744
 20
353.571
 10
818.779
 20
351.9
 10
818.444
 20
350
 10
818.779
 20
348.1
 10
819.744
 20
346.429
 10
821.222
 20
345.188
 10
823.035
 20
344.528
 10
824.965
 20
344.528
  0
LWPOLYLINE
100
AcDbEntity
  8
0
100
AcDbPolyline
 90
18
 70
1
 10
2626.78
 20
345.188
 10
2628.26
 20
346.429
 10
2629.22
 20
348.1
 10
2629.56
 20
350
 10
2629.22
 20
351.9
 10
2628.26
 20
353.571
 10
2626.78
 20
354.812
 10
2624.96
 20
355.472
 10
2623.04
 20
355.472
 10
2621.22
 20
354.812
 10
2619.74
 20
353.571
 10
2618.78
 20
351.9
 10
2618.44
 20
350
 10
2618.78
 20
348.1
 10
2619.74
 20
346.429
 10
2621.22
 20
345.188
 10
2623.04
 20
344.528
 10
2624.96
 20
344.528
  0
LWPOLYLINE
100
AcDbEntity
  8
0
100
AcDbPolyline
 90
18
 70
1
 10
426.778
 20
345.188
 10
428.256
 20
346.429
 10
429.221
 20
348.1
 10
429.556
 20
350
 10
429.221
 20
351.9
 10
428.256
 20
353.571
 10
426.778
 20
354.812
 10
424.965
 20
355.472
 10
423.035
 20
355.472
 10
421.222
 20
354.812
 10
419.744
 20
353.571
 10
418.779
 20
351.9
 10
418.444
 20
350
 10
418.779
 20
348.1
 10
419.744
 20
346.429
 10
421.222
 20
345.188
 10
423.035
 20
344.528
 10
424.965
 20
344.528
  0
LWPOLYLINE
100
AcDbEntity
  8
0
100
AcDbPolyline
 90
18
 70
1
 10
2026.78
 20
345.188
 10
2028.26
 20
346.429
 10
2029.22
 20
348.1
 10
2029.56
 20
350
 10
2029.22
 20
351.9
 10
2028.26
 20
353.571
 10
2026.78
 20
354.812
 10
2024.96
 20
355.472
 10
2023.04
 20
355.472
 10
2021.22
 20
354.812
 10
2019.74
 20
353.571
 10
2018.78
 20
351.9
 10
2018.44
 20
350
 10
2018.78
 20
348.1
 10
2019.74
 20
346.429
 10
2021.22
 20
345.188
 10
2023.04
 20
344.528
 10
2024.96
 20
344.528
  0
LWPOLYLINE
100
AcDbEntity
  8
0
100
AcDbPolyline
 90
18
 70
1
 10
2426.78
 20
345.188
 10
2428.26
 20
346.429
 10
2429.22
 20
348.1
 10
2429.56
 20
350
 10
2429.22
 20
351.9
 10
2428.26
 20
353.571
 10
2426.78
 20
354.812
 10
2424.96
 20
355.472
 10
2423.04
 20
355.472
 10
2421.22
 20
354.812
 10
2419.74
 20
353.571
 10
2418.78
 20
351.9
 10
2418.44
 20
350
 10
2418.78
 20
348.1
 10
2419.74
 20
346.429
 10
2421.22
 20
345.188
 10
2423.04
 20
344.528
 10
2424.96
 20
344.528
  0
LWPOLYLINE
100
AcDbEntity
  8
0
100
AcDbPolyline
 90
18
 70
1
 10
626.778
 20
345.188
 10
628.256
 20
346.429
 10
629.221
 20
348.1
 10
629.556
 20
350
 10
629.221
 20
351.9
 10
628.256
 20
353.571
 10
626.778
 20
354.812
 10
624.965
 20
355.472
 10
623.035
 20
355.472
 10
621.222
 20
354.812
 10
619.744
 20
353.571
 10
618.779
 20
351.9
 10
618.444
 20
350
 10
618.779
 20
348.1
 10
619.744
 20
346.429
 10
621.222
 20
345.188
 10
623.035
 20
344.528
 10
624.965
 20
344.528
  0
LWPOLYLINE
100
AcDbEntity
  8
0
100
AcDbPolyline
 90
18
 70
1
 10
1026.78
 20
345.188
 10
1028.26
 20
346.429
 10
1029.22
 20
348.1
 10
1029.56
 20
350
 10
1029.22
 20
351.9
 10
1028.26
 20
353.571
 10
1026.78
 20
354.812
 10
1024.96
 20
355.472
 10
1023.04
 20
355.472
 10
1021.22
 20
354.812
 10
1019.74
 20
353.571
 10
1018.78
 20
351.9
 10
1018.44
 20
350
 10
1018.78
 20
348.1
 10
1019.74
 20
346.429
 10
1021.22
 20
345.188
 10
1023.04
 20
344.528
 10
1024.96
 20
344.528
  0
LWPOLYLINE
100
AcDbEntity
  8
0
100
AcDbPolyline
 90
18
 70
1
 10
1826.78
 20
345.188
 10
1828.26
 20
346.429
 10
1829.22
 20
348.1
 10
1829.56
 20
350
 10
1829.22
 20
351.9
 10
1828.26
 20
353.571
 10
1826.78
 20
354.812
 10
1824.96
 20
355.472
 10
1823.04
 20
355.472
 10
1821.22
 20
354.812
 10
1819.74
 20
353.571
 10
1818.78
 20
351.9
 10
1818.44
 20
350
 10
1818.78
 20
348.1
 10
1819.74
 20
346.429
 10
1821.22
 20
345.188
 10
1823.04
 20
344.528
 10
1824.96
 20
344.528
  0
LWPOLYLINE
100
AcDbEntity
  8
0
100
AcDbPolyline
 90
20
 70
1
 10
2025.96
 20
323.961
 10
2027.73
 20
324.863
 10
2029.14
 20
326.268
 10
2030.04
 20
328.038
 10
2030.35
 20
330
 10
2030.04
 20
331.962
 10
2029.14
 20
333.732
 10
2027.73
 20
335.137
 10
2025.96
 20
336.039
 10
2024
 20
336.35
 10
2022.04
 20
336.039
 10
2020.27
 20
335.137
 10
2018.86
 20
333.732
 10
2017.96
 20
331.962
 10
2017.65
 20
330
 10
2017.96
 20
328.038
 10
2018.86
 20
326.268
 10
2020.27
 20
324.863
 10
2022.04
 20
323.961
 10
2024
 20
323.65
  0
LWPOLYLINE
100
AcDbEntity
  8
0
100
AcDbPolyline
 90
20
 70
1
 10
625.962
 20
323.961
 10
627.732
 20
324.863
 10
629.137
 20
326.268
 10
630.039
 20
328.038
 10
630.35
 20
330
 10
630.039
 20
331.962
 10
629.137
 20
333.732
 10
627.732
 20
335.137
 10
625.962
 20
336.039
 10
624
 20
336.35
 10
622.038
 20
336.039
 10
620.268
 20
335.137
 10
618.863
 20
333.732
 10
617.961
 20
331.962
 10
617.65
 20
330
 10
617.961
 20
328.038
 10
618.863
 20
326.268
 10
620.268
 20
324.863
 10
622.038
 20
323.961
 10
624
 20
323.65
  0
LWPOLYLINE
100
AcDbEntity
  8
0
100
AcDbPolyline
 90
20
 70
1
 10
425.962
 20
323.961
 10
427.732
 20
324.863
 10
429.137
 20
326.268
 10
430.039
 20
328.038
 10
430.35
 20
330
 10
430.039
 20
331.962
 10
429.137
 20
333.732
 10
427.732
 20
335.137
 10
425.962
 20
336.039
 10
424
 20
336.35
 10
422.038
 20
336.039
 10
420.268
 20
335.137
 10
418.863
 20
333.732
 10
417.961
 20
331.962
 10
417.65
 20
330
 10
417.961
 20
328.038
 10
418.863
 20
326.268
 10
420.268
 20
324.863
 10
422.038
 20
323.961
 10
424
 20
323.65
  0
LWPOLYLINE
100
AcDbEntity
  8
0
100
AcDbPolyline
 90
20
 70
1
 10
1425.96
 20
323.961
 10
1427.73
 20
324.863
 10
1429.14
 20
326.268
 10
1430.04
 20
328.038
 10
1430.35
 20
330
 10
1430.04
 20
331.962
 10
1429.14
 20
333.732
 10
1427.73
 20
335.137
 10
1425.96
 20
336.039
 10
1424
 20
336.35
 10
1422.04
 20
336.039
 10
1420.27
 20
335.137
 10
1418.86
 20
333.732
 10
1417.96
 20
331.962
 10
1417.65
 20
330
 10
1417.96
 20
328.038
 10
1418.86
 20
326.268
 10
1420.27
 20
324.863
 10
1422.04
 20
323.961
 10
1424
 20
323.65
  0
LWPOLYLINE
100
AcDbEntity
  8
0
100
AcDbPolyline
 90
20
 70
1
 10
2825.96
 20
323.961
 10
2827.73
 20
324.863
 10
2829.14
 20
326.268
 10
2830.04
 20
328.038
 10
2830.35
 20
330
 10
2830.04
 20
331.962
 10
2829.14
 20
333.732
 10
2827.73
 20
335.137
 10
2825.96
 20
336.039
 10
2824
 20
336.35
 10
2822.04
 20
336.039
 10
2820.27
 20
335.137
 10
2818.86
 20
333.732
 10
2817.96
 20
331.962
 10
2817.65
 20
330
 10
2817.96
 20
328.038
 10
2818.86
 20
326.268
 10
2820.27
 20
324.863
 10
2822.04
 20
323.961
 10
2824
 20
323.65
  0
LWPOLYLINE
100
AcDbEntity
  8
0
100
AcDbPolyline
 90
20
 70
1
 10
2625.96
 20
323.961
 10
2627.73
 20
324.863
 10
2629.14
 20
326.268
 10
2630.04
 20
328.038
 10
2630.35
 20
330
 10
2630.04
 20
331.962
 10
2629.14
 20
333.732
 10
2627.73
 20
335.137
 10
2625.96
 20
336.039
 10
2624
 20
336.35
 10
2622.04
 20
336.039
 10
2620.27
 20
335.137
 10
2618.86
 20
333.732
 10
2617.96
 20
331.962
 10
2617.65
 20
330
 10
2617.96
 20
328.038
 10
2618.86
 20
326.268
 10
2620.27
 20
324.863
 10
2622.04
 20
323.961
 10
2624
 20
323.65
  0
LWPOLYLINE
100
AcDbEntity
  8
0
100
AcDbPolyline
 90
20
 70
1
 10
2225.96
 20
323.961
 10
2227.73
 20
324.863
 10
2229.14
 20
326.268
 10
2230.04
 20
328.038
 10
2230.35
 20
330
 10
2230.04
 20
331.962
 10
2229.14
 20
333.732
 10
2227.73
 20
335.137
 10
2225.96
 20
336.039
 10
2224
 20
336.35
 10
2222.04
 20
336.039
 10
2220.27
 20
335.137
 10
2218.86
 20
333.732
 10
2217.96
 20
331.962
 10
2217.65
 20
330
 10
2217.96
 20
328.038
 10
2218.86
 20
326.268
 10
2220.27
 20
324.863
 10
2222.04
 20
323.961
 10
2224
 20
323.65
  0
LWPOLYLINE
100
AcDbEntity
  8
0
100
AcDbPolyline
 90
20
 70
1
 10
1025.96
 20
323.961
 10
1027.73
 20
324.863
 10
1029.14
 20
326.268
 10
1030.04
 20
328.038
 10
1030.35
 20
330
 10
1030.04
 20
331.962
 10
1029.14
 20
333.732
 10
1027.73
 20
335.137
 10
1025.96
 20
336.039
 10
1024
 20
336.35
 10
1022.04
 20
336.039
 10
1020.27
 20
335.137
 10
1018.86
 20
333.732
 10
1017.96
 20
331.962
 10
1017.65
 20
330
 10
1017.96
 20
328.038
 10
1018.86
 20
326.268
 10
1020.27
 20
324.863
 10
1022.04
 20
323.961
 10
1024
 20
323.65
  0
LWPOLYLINE
100
AcDbEntity
  8
0
100
AcDbPolyline
 90
20
 70
1
 10
825.962
 20
323.961
 10
827.732
 20
324.863
 10
829.137
 20
326.268
 10
830.039
 20
328.038
 10
830.35
 20
330
 10
830.039
 20
331.962
 10
829.137
 20
333.732
 10
827.732
 20
335.137
 10
825.962
 20
336.039
 10
824
 20
336.35
 10
822.038
 20
336.039
 10
820.268
 20
335.137
 10
818.863
 20
333.732
 10
817.961
 20
331.962
 10
817.65
 20
330
 10
817.961
 20
328.038
 10
818.863
 20
326.268
 10
820.268
 20
324.863
 10
822.038
 20
323.961
 10
824
 20
323.65
  0
LWPOLYLINE
100
AcDbEntity
  8
0
100
AcDbPolyline
 90
20
 70
1
 10
1825.96
 20
323.961
 10
1827.73
 20
324.863
 10
1829.14
 20
326.268
 10
1830.04
 20
328.038
 10
1830.35
 20
330
 10
1830.04
 20
331.962
 10
1829.14
 20
333.732
 10
1827.73
 20
335.137
 10
1825.96
 20
336.039
 10
1824
 20
336.35
 10
1822.04
 20
336.039
 10
1820.27
 20
335.137
 10
1818.86
 20
333.732
 10
1817.96
 20
331.962
 10
1817.65
 20
330
 10
1817.96
 20
328.038
 10
1818.86
 20
326.268
 10
1820.27
 20
324.863
 10
1822.04
 20
323.961
 10
1824
 20
323.65
  0
LWPOLYLINE
100
AcDbEntity
  8
0
100
AcDbPolyline
 90
20
 70
1
 10
225.962
 20
323.961
 10
227.732
 20
324.863
 10
229.137
 20
326.268
 10
230.039
 20
328.038
 10
230.35
 20
330
 10
230.039
 20
331.962
 10
229.137
 20
333.732
 10
227.732
 20
335.137
 10
225.962
 20
336.039
 10
224
 20
336.35
 10
222.038
 20
336.039
 10
220.268
 20
335.137
 10
218.863
 20
333.732
 10
217.961
 20
331.962
 10
217.65
 20
330
 10
217.961
 20
328.038
 10
218.863
 20
326.268
 10
220.268
 20
324.863
 10
222.038
 20
323.961
 10
224
 20
323.65
  0
LWPOLYLINE
100
AcDbEntity
  8
0
100
AcDbPolyline
 90
20
 70
1
 10
2425.96
 20
323.961
 10
2427.73
 20
324.863
 10
2429.14
 20
326.268
 10
2430.04
 20
328.038
 10
2430.35
 20
330
 10
2430.04
 20
331.962
 10
2429.14
 20
333.732
 10
2427.73
 20
335.137
 10
2425.96
 20
336.039
 10
2424
 20
336.35
 10
2422.04
 20
336.039
 10
2420.27
 20
335.137
 10
2418.86
 20
333.732
 10
2417.96
 20
331.962
 10
2417.65
 20
330
 10
2417.96
 20
328.038
 10
2418.86
 20
326.268
 10
2420.27
 20
324.863
 10
2422.04
 20
323.961
 10
2424
 20
323.65
  0
LWPOLYLINE
100
AcDbEntity
  8
0
100
AcDbPolyline
 90
20
 70
1
 10
1225.96
 20
323.961
 10
1227.73
 20
324.863
 10
1229.14
 20
326.268
 10
1230.04
 20
328.038
 10
1230.35
 20
330
 10
1230.04
 20
331.962
 10
1229.14
 20
333.732
 10
1227.73
 20
335.137
 10
1225.96
 20
336.039
 10
1224
 20
336.35
 10
1222.04
 20
336.039
 10
1220.27
 20
335.137
 10
1218.86
 20
333.732
 10
1217.96
 20
331.962
 10
1217.65
 20
330
 10
1217.96
 20
328.038
 10
1218.86
 20
326.268
 10
1220.27
 20
324.863
 10
1222.04
 20
323.961
 10
1224
 20
323.65
  0
LWPOLYLINE
100
AcDbEntity
  8
0
100
AcDbPolyline
 90
20
 70
1
 10
1625.96
 20
323.961
 10
1627.73
 20
324.863
 10
1629.14
 20
326.268
 10
1630.04
 20
328.038
 10
1630.35
 20
330
 10
1630.04
 20
331.962
 10
1629.14
 20
333.732
 10
1627.73
 20
335.137
 10
1625.96
 20
336.039
 10
1624
 20
336.35
 10
1622.04
 20
336.039
 10
1620.27
 20
335.137
 10
1618.86
 20
333.732
 10
1617.96
 20
331.962
 10
1617.65
 20
330
 10
1617.96
 20
328.038
 10
1618.86
 20
326.268
 10
1620.27
 20
324.863
 10
1622.04
 20
323.961
 10
1624
 20
323.65
  0
LWPOLYLINE
100
AcDbEntity
  8
0
100
AcDbPolyline
 90
20
 70
1
 10
1300.96
 20
243.961
 10
1302.73
 20
244.863
 10
1304.14
 20
246.268
 10
1305.04
 20
248.038
 10
1305.35
 20
250
 10
1305.04
 20
251.962
 10
1304.14
 20
253.732
 10
1302.73
 20
255.137
 10
1300.96
 20
256.039
 10
1299
 20
256.35
 10
1297.04
 20
256.039
 10
1295.27
 20
255.137
 10
1293.86
 20
253.732
 10
1292.96
 20
251.962
 10
1292.65
 20
250
 10
1292.96
 20
248.038
 10
1293.86
 20
246.268
 10
1295.27
 20
244.863
 10
1297.04
 20
243.961
 10
1299
 20
243.65
  0
LWPOLYLINE
100
AcDbEntity
  8
0
100
AcDbPolyline
 90
20
 70
1
 10
1350.96
 20
243.961
 10
1352.73
 20
244.863
 10
1354.14
 20
246.268
 10
1355.04
 20
248.038
 10
1355.35
 20
250
 10
1355.04
 20
251.962
 10
1354.14
 20
253.732
 10
1352.73
 20
255.137
 10
1350.96
 20
256.039
 10
1349
 20
256.35
 10
1347.04
 20
256.039
 10
1345.27
 20
255.137
 10
1343.86
 20
253.732
 10
1342.96
 20
251.962
 10
1342.65
 20
250
 10
1342.96
 20
248.038
 10
1343.86
 20
246.268
 10
1345.27
 20
244.863
 10
1347.04
 20
243.961
 10
1349
 20
243.65
  0
LWPOLYLINE
100
AcDbEntity
  8
0
100
AcDbPolyline
 90
20
 70
1
 10
700.962
 20
243.961
 10
702.732
 20
244.863
 10
704.137
 20
246.268
 10
705.039
 20
248.038
 10
705.35
 20
250
 10
705.039
 20
251.962
 10
704.137
 20
253.732
 10
702.732
 20
255.137
 10
700.962
 20
256.039
 10
699
 20
256.35
 10
697.038
 20
256.039
 10
695.268
 20
255.137
 10
693.863
 20
253.732
 10
692.961
 20
251.962
 10
692.65
 20
250
 10
692.961
 20
248.038
 10
693.863
 20
246.268
 10
695.268
 20
244.863
 10
697.038
 20
243.961
 10
699
 20
243.65
  0
LWPOLYLINE
100
AcDbEntity
  8
0
100
AcDbPolyline
 90
20
 70
1
 10
750.962
 20
243.961
 10
752.732
 20
244.863
 10
754.137
 20
246.268
 10
755.039
 20
248.038
 10
755.35
 20
250
 10
755.039
 20
251.962
 10
754.137
 20
253.732
 10
752.732
 20
255.137
 10
750.962
 20
256.039
 10
749
 20
256.35
 10
747.038
 20
256.039
 10
745.268
 20
255.137
 10
743.863
 20
253.732
 10
742.961
 20
251.962
 10
742.65
 20
250
 10
742.961
 20
248.038
 10
743.863
 20
246.268
 10
745.268
 20
244.863
 10
747.038
 20
243.961
 10
749
 20
243.65
  0
LWPOLYLINE
100
AcDbEntity
  8
0
100
AcDbPolyline
 90
20
 70
1
 10
2100.96
 20
243.961
 10
2102.73
 20
244.863
 10
2104.14
 20
246.268
 10
2105.04
 20
248.038
 10
2105.35
 20
250
 10
2105.04
 20
251.962
 10
2104.14
 20
253.732
 10
2102.73
 20
255.137
 10
2100.96
 20
256.039
 10
2099
 20
256.35
 10
2097.04
 20
256.039
 10
2095.27
 20
255.137
 10
2093.86
 20
253.732
 10
2092.96
 20
251.962
 10
2092.65
 20
250
 10
2092.96
 20
248.038
 10
2093.86
 20
246.268
 10
2095.27
 20
244.863
 10
2097.04
 20
243.961
 10
2099
 20
243.65
  0
LWPOLYLINE
100
AcDbEntity
  8
0
100
AcDbPolyline
 90
20
 70
1
 10
2550.96
 20
243.961
 10
2552.73
 20
244.863
 10
2554.14
 20
246.268
 10
2555.04
 20
248.038
 10
2555.35
 20
250
 10
2555.04
 20
251.962
 10
2554.14
 20
253.732
 10
2552.73
 20
255.137
 10
2550.96
 20
256.039
 10
2549
 20
256.35
 10
2547.04
 20
256.039
 10
2545.27
 20
255.137
 10
2543.86
 20
253.732
 10
2542.96
 20
251.962
 10
2542.65
 20
250
 10
2542.96
 20
248.038
 10
2543.86
 20
246.268
 10
2545.27
 20
244.863
 10
2547.04
 20
243.961
 10
2549
 20
243.65
  0
LWPOLYLINE
100
AcDbEntity
  8
0
100
AcDbPolyline
 90
20
 70
1
 10
350.962
 20
243.961
 10
352.732
 20
244.863
 10
354.137
 20
246.268
 10
355.039
 20
248.038
 10
355.35
 20
250
 10
355.039
 20
251.962
 10
354.137
 20
253.732
 10
352.732
 20
255.137
 10
350.962
 20
256.039
 10
349
 20
256.35
 10
347.038
 20
256.039
 10
345.268
 20
255.137
 10
343.863
 20
253.732
 10
342.961
 20
251.962
 10
342.65
 20
250
 10
342.961
 20
248.038
 10
343.863
 20
246.268
 10
345.268
 20
244.863
 10
347.038
 20
243.961
 10
349
 20
243.65
  0
LWPOLYLINE
100
AcDbEntity
  8
0
100
AcDbPolyline
 90
20
 70
1
 10
2150.96
 20
243.961
 10
2152.73
 20
244.863
 10
2154.14
 20
246.268
 10
2155.04
 20
248.038
 10
2155.35
 20
250
 10
2155.04
 20
251.962
 10
2154.14
 20
253.732
 10
2152.73
 20
255.137
 10
2150.96
 20
256.039
 10
2149
 20
256.35
 10
2147.04
 20
256.039
 10
2145.27
 20
255.137
 10
2143.86
 20
253.732
 10
2142.96
 20
251.962
 10
2142.65
 20
250
 10
2142.96
 20
248.038
 10
2143.86
 20
246.268
 10
2145.27
 20
244.863
 10
2147.04
 20
243.961
 10
2149
 20
243.65
  0
LWPOLYLINE
100
AcDbEntity
  8
0
100
AcDbPolyline
 90
20
 70
1
 10
950.962
 20
243.961
 10
952.732
 20
244.863
 10
954.137
 20
246.268
 10
955.039
 20
248.038
 10
955.35
 20
250
 10
955.039
 20
251.962
 10
954.137
 20
253.732
 10
952.732
 20
255.137
 10
950.962
 20
256.039
 10
949
 20
256.35
 10
947.038
 20
256.039
 10
945.268
 20
255.137
 10
943.863
 20
253.732
 10
942.961
 20
251.962
 10
942.65
 20
250
 10
942.961
 20
248.038
 10
943.863
 20
246.268
 10
945.268
 20
244.863
 10
947.038
 20
243.961
 10
949
 20
243.65
  0
LWPOLYLINE
100
AcDbEntity
  8
0
100
AcDbPolyline
 90
20
 70
1
 10
1500.96
 20
243.961
 10
1502.73
 20
244.863
 10
1504.14
 20
246.268
 10
1505.04
 20
248.038
 10
1505.35
 20
250
 10
1505.04
 20
251.962
 10
1504.14
 20
253.732
 10
1502.73
 20
255.137
 10
1500.96
 20
256.039
 10
1499
 20
256.35
 10
1497.04
 20
256.039
 10
1495.27
 20
255.137
 10
1493.86
 20
253.732
 10
1492.96
 20
251.962
 10
1492.65
 20
250
 10
1492.96
 20
248.038
 10
1493.86
 20
246.268
 10
1495.27
 20
244.863
 10
1497.04
 20
243.961
 10
1499
 20
243.65
  0
LWPOLYLINE
100
AcDbEntity
  8
0
100
AcDbPolyline
 90
20
 70
1
 10
900.962
 20
243.961
 10
902.732
 20
244.863
 10
904.137
 20
246.268
 10
905.039
 20
248.038
 10
905.35
 20
250
 10
905.039
 20
251.962
 10
904.137
 20
253.732
 10
902.732
 20
255.137
 10
900.962
 20
256.039
 10
899
 20
256.35
 10
897.038
 20
256.039
 10
895.268
 20
255.137
 10
893.863
 20
253.732
 10
892.961
 20
251.962
 10
892.65
 20
250
 10
892.961
 20
248.038
 10
893.863
 20
246.268
 10
895.268
 20
244.863
 10
897.038
 20
243.961
 10
899
 20
243.65
  0
LWPOLYLINE
100
AcDbEntity
  8
0
100
AcDbPolyline
 90
20
 70
1
 10
1150.96
 20
243.961
 10
1152.73
 20
244.863
 10
1154.14
 20
246.268
 10
1155.04
 20
248.038
 10
1155.35
 20
250
 10
1155.04
 20
251.962
 10
1154.14
 20
253.732
 10
1152.73
 20
255.137
 10
1150.96
 20
256.039
 10
1149
 20
256.35
 10
1147.04
 20
256.039
 10
1145.27
 20
255.137
 10
1143.86
 20
253.732
 10
1142.96
 20
251.962
 10
1142.65
 20
250
 10
1142.96
 20
248.038
 10
1143.86
 20
246.268
 10
1145.27
 20
244.863
 10
1147.04
 20
243.961
 10
1149
 20
243.65
  0
LWPOLYLINE
100
AcDbEntity
  8
0
100
AcDbPolyline
 90
20
 70
1
 10
1750.96
 20
243.961
 10
1752.73
 20
244.863
 10
1754.14
 20
246.268
 10
1755.04
 20
248.038
 10
1755.35
 20
250
 10
1755.04
 20
251.962
 10
1754.14
 20
253.732
 10
1752.73
 20
255.137
 10
1750.96
 20
256.039
 10
1749
 20
256.35
 10
1747.04
 20
256.039
 10
1745.27
 20
255.137
 10
1743.86
 20
253.732
 10
1742.96
 20
251.962
 10
1742.65
 20
250
 10
1742.96
 20
248.038
 10
1743.86
 20
246.268
 10
1745.27
 20
244.863
 10
1747.04
 20
243.961
 10
1749
 20
243.65
  0
LWPOLYLINE
100
AcDbEntity
  8
0
100
AcDbPolyline
 90
20
 70
1
 10
2350.96
 20
243.961
 10
2352.73
 20
244.863
 10
2354.14
 20
246.268
 10
2355.04
 20
248.038
 10
2355.35
 20
250
 10
2355.04
 20
251.962
 10
2354.14
 20
253.732
 10
2352.73
 20
255.137
 10
2350.96
 20
256.039
 10
2349
 20
256.35
 10
2347.04
 20
256.039
 10
2345.27
 20
255.137
 10
2343.86
 20
253.732
 10
2342.96
 20
251.962
 10
2342.65
 20
250
 10
2342.96
 20
248.038
 10
2343.86
 20
246.268
 10
2345.27
 20
244.863
 10
2347.04
 20
243.961
 10
2349
 20
243.65
  0
LWPOLYLINE
100
AcDbEntity
  8
0
100
AcDbPolyline
 90
20
 70
1
 10
2300.96
 20
243.961
 10
2302.73
 20
244.863
 10
2304.14
 20
246.268
 10
2305.04
 20
248.038
 10
2305.35
 20
250
 10
2305.04
 20
251.962
 10
2304.14
 20
253.732
 10
2302.73
 20
255.137
 10
2300.96
 20
256.039
 10
2299
 20
256.35
 10
2297.04
 20
256.039
 10
2295.27
 20
255.137
 10
2293.86
 20
253.732
 10
2292.96
 20
251.962
 10
2292.65
 20
250
 10
2292.96
 20
248.038
 10
2293.86
 20
246.268
 10
2295.27
 20
244.863
 10
2297.04
 20
243.961
 10
2299
 20
243.65
  0
LWPOLYLINE
100
AcDbEntity
  8
0
100
AcDbPolyline
 90
20
 70
1
 10
500.962
 20
243.961
 10
502.732
 20
244.863
 10
504.137
 20
246.268
 10
505.039
 20
248.038
 10
505.35
 20
250
 10
505.039
 20
251.962
 10
504.137
 20
253.732
 10
502.732
 20
255.137
 10
500.962
 20
256.039
 10
499
 20
256.35
 10
497.038
 20
256.039
 10
495.268
 20
255.137
 10
493.863
 20
253.732
 10
492.961
 20
251.962
 10
492.65
 20
250
 10
492.961
 20
248.038
 10
493.863
 20
246.268
 10
495.268
 20
244.863
 10
497.038
 20
243.961
 10
499
 20
243.65
  0
LWPOLYLINE
100
AcDbEntity
  8
0
100
AcDbPolyline
 90
20
 70
1
 10
1700.96
 20
243.961
 10
1702.73
 20
244.863
 10
1704.14
 20
246.268
 10
1705.04
 20
248.038
 10
1705.35
 20
250
 10
1705.04
 20
251.962
 10
1704.14
 20
253.732
 10
1702.73
 20
255.137
 10
1700.96
 20
256.039
 10
1699
 20
256.35
 10
1697.04
 20
256.039
 10
1695.27
 20
255.137
 10
1693.86
 20
253.732
 10
1692.96
 20
251.962
 10
1692.65
 20
250
 10
1692.96
 20
248.038
 10
1693.86
 20
246.268
 10
1695.27
 20
244.863
 10
1697.04
 20
243.961
 10
1699
 20
243.65
  0
LWPOLYLINE
100
AcDbEntity
  8
0
100
AcDbPolyline
 90
20
 70
1
 10
300.962
 20
243.961
 10
302.732
 20
244.863
 10
304.137
 20
246.268
 10
305.039
 20
248.038
 10
305.35
 20
250
 10
305.039
 20
251.962
 10
304.137
 20
253.732
 10
302.732
 20
255.137
 10
300.962
 20
256.039
 10
299
 20
256.35
 10
297.038
 20
256.039
 10
295.268
 20
255.137
 10
293.863
 20
253.732
 10
292.961
 20
251.962
 10
292.65
 20
250
 10
292.961
 20
248.038
 10
293.863
 20
246.268
 10
295.268
 20
244.863
 10
297.038
 20
243.961
 10
299
 20
243.65
  0
LWPOLYLINE
100
AcDbEntity
  8
0
100
AcDbPolyline
 90
20
 70
1
 10
1100.96
 20
243.961
 10
1102.73
 20
244.863
 10
1104.14
 20
246.268
 10
1105.04
 20
248.038
 10
1105.35
 20
250
 10
1105.04
 20
251.962
 10
1104.14
 20
253.732
 10
1102.73
 20
255.137
 10
1100.96
 20
256.039
 10
1099
 20
256.35
 10
1097.04
 20
256.039
 10
1095.27
 20
255.137
 10
1093.86
 20
253.732
 10
1092.96
 20
251.962
 10
1092.65
 20
250
 10
1092.96
 20
248.038
 10
1093.86
 20
246.268
 10
1095.27
 20
244.863
 10
1097.04
 20
243.961
 10
1099
 20
243.65
  0
LWPOLYLINE
100
AcDbEntity
  8
0
100
AcDbPolyline
 90
20
 70
1
 10
2700.96
 20
243.961
 10
2702.73
 20
244.863
 10
2704.14
 20
246.268
 10
2705.04
 20
248.038
 10
2705.35
 20
250
 10
2705.04
 20
251.962
 10
2704.14
 20
253.732
 10
2702.73
 20
255.137
 10
2700.96
 20
256.039
 10
2699
 20
256.35
 10
2697.04
 20
256.039
 10
2695.27
 20
255.137
 10
2693.86
 20
253.732
 10
2692.96
 20
251.962
 10
2692.65
 20
250
 10
2692.96
 20
248.038
 10
2693.86
 20
246.268
 10
2695.27
 20
244.863
 10
2697.04
 20
243.961
 10
2699
 20
243.65
  0
LWPOLYLINE
100
AcDbEntity
  8
0
100
AcDbPolyline
 90
20
 70
1
 10
2750.96
 20
243.961
 10
2752.73
 20
244.863
 10
2754.14
 20
246.268
 10
2755.04
 20
248.038
 10
2755.35
 20
250
 10
2755.04
 20
251.962
 10
2754.14
 20
253.732
 10
2752.73
 20
255.137
 10
2750.96
 20
256.039
 10
2749
 20
256.35
 10
2747.04
 20
256.039
 10
2745.27
 20
255.137
 10
2743.86
 20
253.732
 10
2742.96
 20
251.962
 10
2742.65
 20
250
 10
2742.96
 20
248.038
 10
2743.86
 20
246.268
 10
2745.27
 20
244.863
 10
2747.04
 20
243.961
 10
2749
 20
243.65
  0
LWPOLYLINE
100
AcDbEntity
  8
0
100
AcDbPolyline
 90
20
 70
1
 10
1900.96
 20
243.961
 10
1902.73
 20
244.863
 10
1904.14
 20
246.268
 10
1905.04
 20
248.038
 10
1905.35
 20
250
 10
1905.04
 20
251.962
 10
1904.14
 20
253.732
 10
1902.73
 20
255.137
 10
1900.96
 20
256.039
 10
1899
 20
256.35
 10
1897.04
 20
256.039
 10
1895.27
 20
255.137
 10
1893.86
 20
253.732
 10
1892.96
 20
251.962
 10
1892.65
 20
250
 10
1892.96
 20
248.038
 10
1893.86
 20
246.268
 10
1895.27
 20
244.863
 10
1897.04
 20
243.961
 10
1899
 20
243.65
  0
LWPOLYLINE
100
AcDbEntity
  8
0
100
AcDbPolyline
 90
20
 70
1
 10
1950.96
 20
243.961
 10
1952.73
 20
244.863
 10
1954.14
 20
246.268
 10
1955.04
 20
248.038
 10
1955.35
 20
250
 10
1955.04
 20
251.962
 10
1954.14
 20
253.732
 10
1952.73
 20
255.137
 10
1950.96
 20
256.039
 10
1949
 20
256.35
 10
1947.04
 20
256.039
 10
1945.27
 20
255.137
 10
1943.86
 20
253.732
 10
1942.96
 20
251.962
 10
1942.65
 20
250
 10
1942.96
 20
248.038
 10
1943.86
 20
246.268
 10
1945.27
 20
244.863
 10
1947.04
 20
243.961
 10
1949
 20
243.65
  0
LWPOLYLINE
100
AcDbEntity
  8
0
100
AcDbPolyline
 90
20
 70
1
 10
550.962
 20
243.961
 10
552.732
 20
244.863
 10
554.137
 20
246.268
 10
555.039
 20
248.038
 10
555.35
 20
250
 10
555.039
 20
251.962
 10
554.137
 20
253.732
 10
552.732
 20
255.137
 10
550.962
 20
256.039
 10
549
 20
256.35
 10
547.038
 20
256.039
 10
545.268
 20
255.137
 10
543.863
 20
253.732
 10
542.961
 20
251.962
 10
542.65
 20
250
 10
542.961
 20
248.038
 10
543.863
 20
246.268
 10
545.268
 20
244.863
 10
547.038
 20
243.961
 10
549
 20
243.65
  0
LWPOLYLINE
100
AcDbEntity
  8
0
100
AcDbPolyline
 90
20
 70
1
 10
1550.96
 20
243.961
 10
1552.73
 20
244.863
 10
1554.14
 20
246.268
 10
1555.04
 20
248.038
 10
1555.35
 20
250
 10
1555.04
 20
251.962
 10
1554.14
 20
253.732
 10
1552.73
 20
255.137
 10
1550.96
 20
256.039
 10
1549
 20
256.35
 10
1547.04
 20
256.039
 10
1545.27
 20
255.137
 10
1543.86
 20
253.732
 10
1542.96
 20
251.962
 10
1542.65
 20
250
 10
1542.96
 20
248.038
 10
1543.86
 20
246.268
 10
1545.27
 20
244.863
 10
1547.04
 20
243.961
 10
1549
 20
243.65
  0
LWPOLYLINE
100
AcDbEntity
  8
0
100
AcDbPolyline
 90
20
 70
1
 10
2500.96
 20
243.961
 10
2502.73
 20
244.863
 10
2504.14
 20
246.268
 10
2505.04
 20
248.038
 10
2505.35
 20
250
 10
2505.04
 20
251.962
 10
2504.14
 20
253.732
 10
2502.73
 20
255.137
 10
2500.96
 20
256.039
 10
2499
 20
256.35
 10
2497.04
 20
256.039
 10
2495.27
 20
255.137
 10
2493.86
 20
253.732
 10
2492.96
 20
251.962
 10
2492.65
 20
250
 10
2492.96
 20
248.038
 10
2493.86
 20
246.268
 10
2495.27
 20
244.863
 10
2497.04
 20
243.961
 10
2499
 20
243.65
  0
LWPOLYLINE
100
AcDbEntity
  8
0
100
AcDbPolyline
 90
18
 70
1
 10
1726.78
 20
245.188
 10
1728.26
 20
246.429
 10
1729.22
 20
248.1
 10
1729.56
 20
250
 10
1729.22
 20
251.9
 10
1728.26
 20
253.571
 10
1726.78
 20
254.812
 10
1724.96
 20
255.472
 10
1723.04
 20
255.472
 10
1721.22
 20
254.812
 10
1719.74
 20
253.571
 10
1718.78
 20
251.9
 10
1718.44
 20
250
 10
1718.78
 20
248.1
 10
1719.74
 20
246.429
 10
1721.22
 20
245.188
 10
1723.04
 20
244.528
 10
1724.96
 20
244.528
  0
LWPOLYLINE
100
AcDbEntity
  8
0
100
AcDbPolyline
 90
18
 70
1
 10
1326.78
 20
245.188
 10
1328.26
 20
246.429
 10
1329.22
 20
248.1
 10
1329.56
 20
250
 10
1329.22
 20
251.9
 10
1328.26
 20
253.571
 10
1326.78
 20
254.812
 10
1324.96
 20
255.472
 10
1323.04
 20
255.472
 10
1321.22
 20
254.812
 10
1319.74
 20
253.571
 10
1318.78
 20
251.9
 10
1318.44
 20
250
 10
1318.78
 20
248.1
 10
1319.74
 20
246.429
 10
1321.22
 20
245.188
 10
1323.04
 20
244.528
 10
1324.96
 20
244.528
  0
LWPOLYLINE
100
AcDbEntity
  8
0
100
AcDbPolyline
 90
18
 70
1
 10
326.778
 20
245.188
 10
328.256
 20
246.429
 10
329.221
 20
248.1
 10
329.556
 20
250
 10
329.221
 20
251.9
 10
328.256
 20
253.571
 10
326.778
 20
254.812
 10
324.965
 20
255.472
 10
323.035
 20
255.472
 10
321.222
 20
254.812
 10
319.744
 20
253.571
 10
318.779
 20
251.9
 10
318.444
 20
250
 10
318.779
 20
248.1
 10
319.744
 20
246.429
 10
321.222
 20
245.188
 10
323.035
 20
244.528
 10
324.965
 20
244.528
  0
LWPOLYLINE
100
AcDbEntity
  8
0
100
AcDbPolyline
 90
18
 70
1
 10
2726.78
 20
245.188
 10
2728.26
 20
246.429
 10
2729.22
 20
248.1
 10
2729.56
 20
250
 10
2729.22
 20
251.9
 10
2728.26
 20
253.571
 10
2726.78
 20
254.812
 10
2724.96
 20
255.472
 10
2723.04
 20
255.472
 10
2721.22
 20
254.812
 10
2719.74
 20
253.571
 10
2718.78
 20
251.9
 10
2718.44
 20
250
 10
2718.78
 20
248.1
 10
2719.74
 20
246.429
 10
2721.22
 20
245.188
 10
2723.04
 20
244.528
 10
2724.96
 20
244.528
  0
LWPOLYLINE
100
AcDbEntity
  8
0
100
AcDbPolyline
 90
18
 70
1
 10
2126.78
 20
245.188
 10
2128.26
 20
246.429
 10
2129.22
 20
248.1
 10
2129.56
 20
250
 10
2129.22
 20
251.9
 10
2128.26
 20
253.571
 10
2126.78
 20
254.812
 10
2124.96
 20
255.472
 10
2123.04
 20
255.472
 10
2121.22
 20
254.812
 10
2119.74
 20
253.571
 10
2118.78
 20
251.9
 10
2118.44
 20
250
 10
2118.78
 20
248.1
 10
2119.74
 20
246.429
 10
2121.22
 20
245.188
 10
2123.04
 20
244.528
 10
2124.96
 20
244.528
  0
LWPOLYLINE
100
AcDbEntity
  8
0
100
AcDbPolyline
 90
18
 70
1
 10
926.778
 20
245.188
 10
928.256
 20
246.429
 10
929.221
 20
248.1
 10
929.556
 20
250
 10
929.221
 20
251.9
 10
928.256
 20
253.571
 10
926.778
 20
254.812
 10
924.965
 20
255.472
 10
923.035
 20
255.472
 10
921.222
 20
254.812
 10
919.744
 20
253.571
 10
918.779
 20
251.9
 10
918.444
 20
250
 10
918.779
 20
248.1
 10
919.744
 20
246.429
 10
921.222
 20
245.188
 10
923.035
 20
244.528
 10
924.965
 20
244.528
  0
LWPOLYLINE
100
AcDbEntity
  8
0
100
AcDbPolyline
 90
18
 70
1
 10
2526.78
 20
245.188
 10
2528.26
 20
246.429
 10
2529.22
 20
248.1
 10
2529.56
 20
250
 10
2529.22
 20
251.9
 10
2528.26
 20
253.571
 10
2526.78
 20
254.812
 10
2524.96
 20
255.472
 10
2523.04
 20
255.472
 10
2521.22
 20
254.812
 10
2519.74
 20
253.571
 10
2518.78
 20
251.9
 10
2518.44
 20
250
 10
2518.78
 20
248.1
 10
2519.74
 20
246.429
 10
2521.22
 20
245.188
 10
2523.04
 20
244.528
 10
2524.96
 20
244.528
  0
LWPOLYLINE
100
AcDbEntity
  8
0
100
AcDbPolyline
 90
18
 70
1
 10
2326.78
 20
245.188
 10
2328.26
 20
246.429
 10
2329.22
 20
248.1
 10
2329.56
 20
250
 10
2329.22
 20
251.9
 10
2328.26
 20
253.571
 10
2326.78
 20
254.812
 10
2324.96
 20
255.472
 10
2323.04
 20
255.472
 10
2321.22
 20
254.812
 10
2319.74
 20
253.571
 10
2318.78
 20
251.9
 10
2318.44
 20
250
 10
2318.78
 20
248.1
 10
2319.74
 20
246.429
 10
2321.22
 20
245.188
 10
2323.04
 20
244.528
 10
2324.96
 20
244.528
  0
LWPOLYLINE
100
AcDbEntity
  8
0
100
AcDbPolyline
 90
18
 70
1
 10
726.778
 20
245.188
 10
728.256
 20
246.429
 10
729.221
 20
248.1
 10
729.556
 20
250
 10
729.221
 20
251.9
 10
728.256
 20
253.571
 10
726.778
 20
254.812
 10
724.965
 20
255.472
 10
723.035
 20
255.472
 10
721.222
 20
254.812
 10
719.744
 20
253.571
 10
718.779
 20
251.9
 10
718.444
 20
250
 10
718.779
 20
248.1
 10
719.744
 20
246.429
 10
721.222
 20
245.188
 10
723.035
 20
244.528
 10
724.965
 20
244.528
  0
LWPOLYLINE
100
AcDbEntity
  8
0
100
AcDbPolyline
 90
18
 70
1
 10
1126.78
 20
245.188
 10
1128.26
 20
246.429
 10
1129.22
 20
248.1
 10
1129.56
 20
250
 10
1129.22
 20
251.9
 10
1128.26
 20
253.571
 10
1126.78
 20
254.812
 10
1124.96
 20
255.472
 10
1123.04
 20
255.472
 10
1121.22
 20
254.812
 10
1119.74
 20
253.571
 10
1118.78
 20
251.9
 10
1118.44
 20
250
 10
1118.78
 20
248.1
 10
1119.74
 20
246.429
 10
1121.22
 20
245.188
 10
1123.04
 20
244.528
 10
1124.96
 20
244.528
  0
LWPOLYLINE
100
AcDbEntity
  8
0
100
AcDbPolyline
 90
18
 70
1
 10
526.778
 20
245.188
 10
528.256
 20
246.429
 10
529.221
 20
248.1
 10
529.556
 20
250
 10
529.221
 20
251.9
 10
528.256
 20
253.571
 10
526.778
 20
254.812
 10
524.965
 20
255.472
 10
523.035
 20
255.472
 10
521.222
 20
254.812
 10
519.744
 20
253.571
 10
518.779
 20
251.9
 10
518.444
 20
250
 10
518.779
 20
248.1
 10
519.744
 20
246.429
 10
521.222
 20
245.188
 10
523.035
 20
244.528
 10
524.965
 20
244.528
  0
LWPOLYLINE
100
AcDbEntity
  8
0
100
AcDbPolyline
 90
18
 70
1
 10
1526.78
 20
245.188
 10
1528.26
 20
246.429
 10
1529.22
 20
248.1
 10
1529.56
 20
250
 10
1529.22
 20
251.9
 10
1528.26
 20
253.571
 10
1526.78
 20
254.812
 10
1524.96
 20
255.472
 10
1523.04
 20
255.472
 10
1521.22
 20
254.812
 10
1519.74
 20
253.571
 10
1518.78
 20
251.9
 10
1518.44
 20
250
 10
1518.78
 20
248.1
 10
1519.74
 20
246.429
 10
1521.22
 20
245.188
 10
1523.04
 20
244.528
 10
1524.96
 20
244.528
  0
LWPOLYLINE
100
AcDbEntity
  8
0
100
AcDbPolyline
 90
18
 70
1
 10
1926.78
 20
245.188
 10
1928.26
 20
246.429
 10
1929.22
 20
248.1
 10
1929.56
 20
250
 10
1929.22
 20
251.9
 10
1928.26
 20
253.571
 10
1926.78
 20
254.812
 10
1924.96
 20
255.472
 10
1923.04
 20
255.472
 10
1921.22
 20
254.812
 10
1919.74
 20
253.571
 10
1918.78
 20
251.9
 10
1918.44
 20
250
 10
1918.78
 20
248.1
 10
1919.74
 20
246.429
 10
1921.22
 20
245.188
 10
1923.04
 20
244.528
 10
1924.96
 20
244.528
  0
LWPOLYLINE
100
AcDbEntity
  8
0
100
AcDbPolyline
 90
20
 70
1
 10
625.962
 20
163.961
 10
627.732
 20
164.863
 10
629.137
 20
166.268
 10
630.039
 20
168.038
 10
630.35
 20
170
 10
630.039
 20
171.962
 10
629.137
 20
173.732
 10
627.732
 20
175.137
 10
625.962
 20
176.039
 10
624
 20
176.35
 10
622.038
 20
176.039
 10
620.268
 20
175.137
 10
618.863
 20
173.732
 10
617.961
 20
171.962
 10
617.65
 20
170
 10
617.961
 20
168.038
 10
618.863
 20
166.268
 10
620.268
 20
164.863
 10
622.038
 20
163.961
 10
624
 20
163.65
  0
LWPOLYLINE
100
AcDbEntity
  8
0
100
AcDbPolyline
 90
20
 70
1
 10
2025.96
 20
163.961
 10
2027.73
 20
164.863
 10
2029.14
 20
166.268
 10
2030.04
 20
168.038
 10
2030.35
 20
170
 10
2030.04
 20
171.962
 10
2029.14
 20
173.732
 10
2027.73
 20
175.137
 10
2025.96
 20
176.039
 10
2024
 20
176.35
 10
2022.04
 20
176.039
 10
2020.27
 20
175.137
 10
2018.86
 20
173.732
 10
2017.96
 20
171.962
 10
2017.65
 20
170
 10
2017.96
 20
168.038
 10
2018.86
 20
166.268
 10
2020.27
 20
164.863
 10
2022.04
 20
163.961
 10
2024
 20
163.65
  0
LWPOLYLINE
100
AcDbEntity
  8
0
100
AcDbPolyline
 90
20
 70
1
 10
825.962
 20
163.961
 10
827.732
 20
164.863
 10
829.137
 20
166.268
 10
830.039
 20
168.038
 10
830.35
 20
170
 10
830.039
 20
171.962
 10
829.137
 20
173.732
 10
827.732
 20
175.137
 10
825.962
 20
176.039
 10
824
 20
176.35
 10
822.038
 20
176.039
 10
820.268
 20
175.137
 10
818.863
 20
173.732
 10
817.961
 20
171.962
 10
817.65
 20
170
 10
817.961
 20
168.038
 10
818.863
 20
166.268
 10
820.268
 20
164.863
 10
822.038
 20
163.961
 10
824
 20
163.65
  0
LWPOLYLINE
100
AcDbEntity
  8
0
100
AcDbPolyline
 90
20
 70
1
 10
425.962
 20
163.961
 10
427.732
 20
164.863
 10
429.137
 20
166.268
 10
430.039
 20
168.038
 10
430.35
 20
170
 10
430.039
 20
171.962
 10
429.137
 20
173.732
 10
427.732
 20
175.137
 10
425.962
 20
176.039
 10
424
 20
176.35
 10
422.038
 20
176.039
 10
420.268
 20
175.137
 10
418.863
 20
173.732
 10
417.961
 20
171.962
 10
417.65
 20
170
 10
417.961
 20
168.038
 10
418.863
 20
166.268
 10
420.268
 20
164.863
 10
422.038
 20
163.961
 10
424
 20
163.65
  0
LWPOLYLINE
100
AcDbEntity
  8
0
100
AcDbPolyline
 90
20
 70
1
 10
2425.96
 20
163.961
 10
2427.73
 20
164.863
 10
2429.14
 20
166.268
 10
2430.04
 20
168.038
 10
2430.35
 20
170
 10
2430.04
 20
171.962
 10
2429.14
 20
173.732
 10
2427.73
 20
175.137
 10
2425.96
 20
176.039
 10
2424
 20
176.35
 10
2422.04
 20
176.039
 10
2420.27
 20
175.137
 10
2418.86
 20
173.732
 10
2417.96
 20
171.962
 10
2417.65
 20
170
 10
2417.96
 20
168.038
 10
2418.86
 20
166.268
 10
2420.27
 20
164.863
 10
2422.04
 20
163.961
 10
2424
 20
163.65
  0
LWPOLYLINE
100
AcDbEntity
  8
0
100
AcDbPolyline
 90
20
 70
1
 10
1225.96
 20
163.961
 10
1227.73
 20
164.863
 10
1229.14
 20
166.268
 10
1230.04
 20
168.038
 10
1230.35
 20
170
 10
1230.04
 20
171.962
 10
1229.14
 20
173.732
 10
1227.73
 20
175.137
 10
1225.96
 20
176.039
 10
1224
 20
176.35
 10
1222.04
 20
176.039
 10
1220.27
 20
175.137
 10
1218.86
 20
173.732
 10
1217.96
 20
171.962
 10
1217.65
 20
170
 10
1217.96
 20
168.038
 10
1218.86
 20
166.268
 10
1220.27
 20
164.863
 10
1222.04
 20
163.961
 10
1224
 20
163.65
  0
LWPOLYLINE
100
AcDbEntity
  8
0
100
AcDbPolyline
 90
20
 70
1
 10
2625.96
 20
163.961
 10
2627.73
 20
164.863
 10
2629.14
 20
166.268
 10
2630.04
 20
168.038
 10
2630.35
 20
170
 10
2630.04
 20
171.962
 10
2629.14
 20
173.732
 10
2627.73
 20
175.137
 10
2625.96
 20
176.039
 10
2624
 20
176.35
 10
2622.04
 20
176.039
 10
2620.27
 20
175.137
 10
2618.86
 20
173.732
 10
2617.96
 20
171.962
 10
2617.65
 20
170
 10
2617.96
 20
168.038
 10
2618.86
 20
166.268
 10
2620.27
 20
164.863
 10
2622.04
 20
163.961
 10
2624
 20
163.65
  0
LWPOLYLINE
100
AcDbEntity
  8
0
100
AcDbPolyline
 90
20
 70
1
 10
1625.96
 20
163.961
 10
1627.73
 20
164.863
 10
1629.14
 20
166.268
 10
1630.04
 20
168.038
 10
1630.35
 20
170
 10
1630.04
 20
171.962
 10
1629.14
 20
173.732
 10
1627.73
 20
175.137
 10
1625.96
 20
176.039
 10
1624
 20
176.35
 10
1622.04
 20
176.039
 10
1620.27
 20
175.137
 10
1618.86
 20
173.732
 10
1617.96
 20
171.962
 10
1617.65
 20
170
 10
1617.96
 20
168.038
 10
1618.86
 20
166.268
 10
1620.27
 20
164.863
 10
1622.04
 20
163.961
 10
1624
 20
163.65
  0
LWPOLYLINE
100
AcDbEntity
  8
0
100
AcDbPolyline
 90
20
 70
1
 10
1825.96
 20
163.961
 10
1827.73
 20
164.863
 10
1829.14
 20
166.268
 10
1830.04
 20
168.038
 10
1830.35
 20
170
 10
1830.04
 20
171.962
 10
1829.14
 20
173.732
 10
1827.73
 20
175.137
 10
1825.96
 20
176.039
 10
1824
 20
176.35
 10
1822.04
 20
176.039
 10
1820.27
 20
175.137
 10
1818.86
 20
173.732
 10
1817.96
 20
171.962
 10
1817.65
 20
170
 10
1817.96
 20
168.038
 10
1818.86
 20
166.268
 10
1820.27
 20
164.863
 10
1822.04
 20
163.961
 10
1824
 20
163.65
  0
LWPOLYLINE
100
AcDbEntity
  8
0
100
AcDbPolyline
 90
20
 70
1
 10
2225.96
 20
163.961
 10
2227.73
 20
164.863
 10
2229.14
 20
166.268
 10
2230.04
 20
168.038
 10
2230.35
 20
170
 10
2230.04
 20
171.962
 10
2229.14
 20
173.732
 10
2227.73
 20
175.137
 10
2225.96
 20
176.039
 10
2224
 20
176.35
 10
2222.04
 20
176.039
 10
2220.27
 20
175.137
 10
2218.86
 20
173.732
 10
2217.96
 20
171.962
 10
2217.65
 20
170
 10
2217.96
 20
168.038
 10
2218.86
 20
166.268
 10
2220.27
 20
164.863
 10
2222.04
 20
163.961
 10
2224
 20
163.65
  0
LWPOLYLINE
100
AcDbEntity
  8
0
100
AcDbPolyline
 90
20
 70
1
 10
1025.96
 20
163.961
 10
1027.73
 20
164.863
 10
1029.14
 20
166.268
 10
1030.04
 20
168.038
 10
1030.35
 20
170
 10
1030.04
 20
171.962
 10
1029.14
 20
173.732
 10
1027.73
 20
175.137
 10
1025.96
 20
176.039
 10
1024
 20
176.35
 10
1022.04
 20
176.039
 10
1020.27
 20
175.137
 10
1018.86
 20
173.732
 10
1017.96
 20
171.962
 10
1017.65
 20
170
 10
1017.96
 20
168.038
 10
1018.86
 20
166.268
 10
1020.27
 20
164.863
 10
1022.04
 20
163.961
 10
1024
 20
163.65
  0
LWPOLYLINE
100
AcDbEntity
  8
0
100
AcDbPolyline
 90
20
 70
1
 10
1425.96
 20
163.961
 10
1427.73
 20
164.863
 10
1429.14
 20
166.268
 10
1430.04
 20
168.038
 10
1430.35
 20
170
 10
1430.04
 20
171.962
 10
1429.14
 20
173.732
 10
1427.73
 20
175.137
 10
1425.96
 20
176.039
 10
1424
 20
176.35
 10
1422.04
 20
176.039
 10
1420.27
 20
175.137
 10
1418.86
 20
173.732
 10
1417.96
 20
171.962
 10
1417.65
 20
170
 10
1417.96
 20
168.038
 10
1418.86
 20
166.268
 10
1420.27
 20
164.863
 10
1422.04
 20
163.961
 10
1424
 20
163.65
  0
LWPOLYLINE
100
AcDbEntity
  8
0
100
AcDbPolyline
 90
20
 70
1
 10
225.962
 20
163.961
 10
227.732
 20
164.863
 10
229.137
 20
166.268
 10
230.039
 20
168.038
 10
230.35
 20
170
 10
230.039
 20
171.962
 10
229.137
 20
173.732
 10
227.732
 20
175.137
 10
225.962
 20
176.039
 10
224
 20
176.35
 10
222.038
 20
176.039
 10
220.268
 20
175.137
 10
218.863
 20
173.732
 10
217.961
 20
171.962
 10
217.65
 20
170
 10
217.961
 20
168.038
 10
218.863
 20
166.268
 10
220.268
 20
164.863
 10
222.038
 20
163.961
 10
224
 20
163.65
  0
LWPOLYLINE
100
AcDbEntity
  8
0
100
AcDbPolyline
 90
20
 70
1
 10
2825.96
 20
163.961
 10
2827.73
 20
164.863
 10
2829.14
 20
166.268
 10
2830.04
 20
168.038
 10
2830.35
 20
170
 10
2830.04
 20
171.962
 10
2829.14
 20
173.732
 10
2827.73
 20
175.137
 10
2825.96
 20
176.039
 10
2824
 20
176.35
 10
2822.04
 20
176.039
 10
2820.27
 20
175.137
 10
2818.86
 20
173.732
 10
2817.96
 20
171.962
 10
2817.65
 20
170
 10
2817.96
 20
168.038
 10
2818.86
 20
166.268
 10
2820.27
 20
164.863
 10
2822.04
 20
163.961
 10
2824
 20
163.65
  0
LWPOLYLINE
100
AcDbEntity
  8
0
100
AcDbPolyline
 90
18
 70
1
 10
2626.78
 20
145.188
 10
2628.26
 20
146.429
 10
2629.22
 20
148.1
 10
2629.56
 20
150
 10
2629.22
 20
151.9
 10
2628.26
 20
153.571
 10
2626.78
 20
154.812
 10
2624.96
 20
155.472
 10
2623.04
 20
155.472
 10
2621.22
 20
154.812
 10
2619.74
 20
153.571
 10
2618.78
 20
151.9
 10
2618.44
 20
150
 10
2618.78
 20
148.1
 10
2619.74
 20
146.429
 10
2621.22
 20
145.188
 10
2623.04
 20
144.528
 10
2624.96
 20
144.528
  0
LWPOLYLINE
100
AcDbEntity
  8
0
100
AcDbPolyline
 90
18
 70
1
 10
1426.78
 20
145.188
 10
1428.26
 20
146.429
 10
1429.22
 20
148.1
 10
1429.56
 20
150
 10
1429.22
 20
151.9
 10
1428.26
 20
153.571
 10
1426.78
 20
154.812
 10
1424.96
 20
155.472
 10
1423.04
 20
155.472
 10
1421.22
 20
154.812
 10
1419.74
 20
153.571
 10
1418.78
 20
151.9
 10
1418.44
 20
150
 10
1418.78
 20
148.1
 10
1419.74
 20
146.429
 10
1421.22
 20
145.188
 10
1423.04
 20
144.528
 10
1424.96
 20
144.528
  0
LWPOLYLINE
100
AcDbEntity
  8
0
100
AcDbPolyline
 90
18
 70
1
 10
626.778
 20
145.188
 10
628.256
 20
146.429
 10
629.221
 20
148.1
 10
629.556
 20
150
 10
629.221
 20
151.9
 10
628.256
 20
153.571
 10
626.778
 20
154.812
 10
624.965
 20
155.472
 10
623.035
 20
155.472
 10
621.222
 20
154.812
 10
619.744
 20
153.571
 10
618.779
 20
151.9
 10
618.444
 20
150
 10
618.779
 20
148.1
 10
619.744
 20
146.429
 10
621.222
 20
145.188
 10
623.035
 20
144.528
 10
624.965
 20
144.528
  0
LWPOLYLINE
100
AcDbEntity
  8
0
100
AcDbPolyline
 90
18
 70
1
 10
826.778
 20
145.188
 10
828.256
 20
146.429
 10
829.221
 20
148.1
 10
829.556
 20
150
 10
829.221
 20
151.9
 10
828.256
 20
153.571
 10
826.778
 20
154.812
 10
824.965
 20
155.472
 10
823.035
 20
155.472
 10
821.222
 20
154.812
 10
819.744
 20
153.571
 10
818.779
 20
151.9
 10
818.444
 20
150
 10
818.779
 20
148.1
 10
819.744
 20
146.429
 10
821.222
 20
145.188
 10
823.035
 20
144.528
 10
824.965
 20
144.528
  0
LWPOLYLINE
100
AcDbEntity
  8
0
100
AcDbPolyline
 90
18
 70
1
 10
2426.78
 20
145.188
 10
2428.26
 20
146.429
 10
2429.22
 20
148.1
 10
2429.56
 20
150
 10
2429.22
 20
151.9
 10
2428.26
 20
153.571
 10
2426.78
 20
154.812
 10
2424.96
 20
155.472
 10
2423.04
 20
155.472
 10
2421.22
 20
154.812
 10
2419.74
 20
153.571
 10
2418.78
 20
151.9
 10
2418.44
 20
150
 10
2418.78
 20
148.1
 10
2419.74
 20
146.429
 10
2421.22
 20
145.188
 10
2423.04
 20
144.528
 10
2424.96
 20
144.528
  0
LWPOLYLINE
100
AcDbEntity
  8
0
100
AcDbPolyline
 90
18
 70
1
 10
2226.78
 20
145.188
 10
2228.26
 20
146.429
 10
2229.22
 20
148.1
 10
2229.56
 20
150
 10
2229.22
 20
151.9
 10
2228.26
 20
153.571
 10
2226.78
 20
154.812
 10
2224.96
 20
155.472
 10
2223.04
 20
155.472
 10
2221.22
 20
154.812
 10
2219.74
 20
153.571
 10
2218.78
 20
151.9
 10
2218.44
 20
150
 10
2218.78
 20
148.1
 10
2219.74
 20
146.429
 10
2221.22
 20
145.188
 10
2223.04
 20
144.528
 10
2224.96
 20
144.528
  0
LWPOLYLINE
100
AcDbEntity
  8
0
100
AcDbPolyline
 90
18
 70
1
 10
1626.78
 20
145.188
 10
1628.26
 20
146.429
 10
1629.22
 20
148.1
 10
1629.56
 20
150
 10
1629.22
 20
151.9
 10
1628.26
 20
153.571
 10
1626.78
 20
154.812
 10
1624.96
 20
155.472
 10
1623.04
 20
155.472
 10
1621.22
 20
154.812
 10
1619.74
 20
153.571
 10
1618.78
 20
151.9
 10
1618.44
 20
150
 10
1618.78
 20
148.1
 10
1619.74
 20
146.429
 10
1621.22
 20
145.188
 10
1623.04
 20
144.528
 10
1624.96
 20
144.528
  0
LWPOLYLINE
100
AcDbEntity
  8
0
100
AcDbPolyline
 90
18
 70
1
 10
2826.78
 20
145.188
 10
2828.26
 20
146.429
 10
2829.22
 20
148.1
 10
2829.56
 20
150
 10
2829.22
 20
151.9
 10
2828.26
 20
153.571
 10
2826.78
 20
154.812
 10
2824.96
 20
155.472
 10
2823.04
 20
155.472
 10
2821.22
 20
154.812
 10
2819.74
 20
153.571
 10
2818.78
 20
151.9
 10
2818.44
 20
150
 10
2818.78
 20
148.1
 10
2819.74
 20
146.429
 10
2821.22
 20
145.188
 10
2823.04
 20
144.528
 10
2824.96
 20
144.528
  0
LWPOLYLINE
100
AcDbEntity
  8
0
100
AcDbPolyline
 90
18
 70
1
 10
1026.78
 20
145.188
 10
1028.26
 20
146.429
 10
1029.22
 20
148.1
 10
1029.56
 20
150
 10
1029.22
 20
151.9
 10
1028.26
 20
153.571
 10
1026.78
 20
154.812
 10
1024.96
 20
155.472
 10
1023.04
 20
155.472
 10
1021.22
 20
154.812
 10
1019.74
 20
153.571
 10
1018.78
 20
151.9
 10
1018.44
 20
150
 10
1018.78
 20
148.1
 10
1019.74
 20
146.429
 10
1021.22
 20
145.188
 10
1023.04
 20
144.528
 10
1024.96
 20
144.528
  0
LWPOLYLINE
100
AcDbEntity
  8
0
100
AcDbPolyline
 90
18
 70
1
 10
426.778
 20
145.188
 10
428.256
 20
146.429
 10
429.221
 20
148.1
 10
429.556
 20
150
 10
429.221
 20
151.9
 10
428.256
 20
153.571
 10
426.778
 20
154.812
 10
424.965
 20
155.472
 10
423.035
 20
155.472
 10
421.222
 20
154.812
 10
419.744
 20
153.571
 10
418.779
 20
151.9
 10
418.444
 20
150
 10
418.779
 20
148.1
 10
419.744
 20
146.429
 10
421.222
 20
145.188
 10
423.035
 20
144.528
 10
424.965
 20
144.528
  0
LWPOLYLINE
100
AcDbEntity
  8
0
100
AcDbPolyline
 90
18
 70
1
 10
2026.78
 20
145.188
 10
2028.26
 20
146.429
 10
2029.22
 20
148.1
 10
2029.56
 20
150
 10
2029.22
 20
151.9
 10
2028.26
 20
153.571
 10
2026.78
 20
154.812
 10
2024.96
 20
155.472
 10
2023.04
 20
155.472
 10
2021.22
 20
154.812
 10
2019.74
 20
153.571
 10
2018.78
 20
151.9
 10
2018.44
 20
150
 10
2018.78
 20
148.1
 10
2019.74
 20
146.429
 10
2021.22
 20
145.188
 10
2023.04
 20
144.528
 10
2024.96
 20
144.528
  0
LWPOLYLINE
100
AcDbEntity
  8
0
100
AcDbPolyline
 90
18
 70
1
 10
1826.78
 20
145.188
 10
1828.26
 20
146.429
 10
1829.22
 20
148.1
 10
1829.56
 20
150
 10
1829.22
 20
151.9
 10
1828.26
 20
153.571
 10
1826.78
 20
154.812
 10
1824.96
 20
155.472
 10
1823.04
 20
155.472
 10
1821.22
 20
154.812
 10
1819.74
 20
153.571
 10
1818.78
 20
151.9
 10
1818.44
 20
150
 10
1818.78
 20
148.1
 10
1819.74
 20
146.429
 10
1821.22
 20
145.188
 10
1823.04
 20
144.528
 10
1824.96
 20
144.528
  0
LWPOLYLINE
100
AcDbEntity
  8
0
100
AcDbPolyline
 90
18
 70
1
 10
1226.78
 20
145.188
 10
1228.26
 20
146.429
 10
1229.22
 20
148.1
 10
1229.56
 20
150
 10
1229.22
 20
151.9
 10
1228.26
 20
153.571
 10
1226.78
 20
154.812
 10
1224.96
 20
155.472
 10
1223.04
 20
155.472
 10
1221.22
 20
154.812
 10
1219.74
 20
153.571
 10
1218.78
 20
151.9
 10
1218.44
 20
150
 10
1218.78
 20
148.1
 10
1219.74
 20
146.429
 10
1221.22
 20
145.188
 10
1223.04
 20
144.528
 10
1224.96
 20
144.528
  0
LWPOLYLINE
100
AcDbEntity
  8
0
100
AcDbPolyline
 90
18
 70
1
 10
226.778
 20
145.188
 10
228.256
 20
146.429
 10
229.221
 20
148.1
 10
229.556
 20
150
 10
229.221
 20
151.9
 10
228.256
 20
153.571
 10
226.778
 20
154.812
 10
224.965
 20
155.472
 10
223.035
 20
155.472
 10
221.222
 20
154.812
 10
219.744
 20
153.571
 10
218.779
 20
151.9
 10
218.444
 20
150
 10
218.779
 20
148.1
 10
219.744
 20
146.429
 10
221.222
 20
145.188
 10
223.035
 20
144.528
 10
224.965
 20
144.528
  0
LWPOLYLINE
100
AcDbEntity
  8
0
100
AcDbPolyline
 90
20
 70
1
 10
2825.96
 20
123.961
 10
2827.73
 20
124.863
 10
2829.14
 20
126.268
 10
2830.04
 20
128.038
 10
2830.35
 20
130
 10
2830.04
 20
131.962
 10
2829.14
 20
133.732
 10
2827.73
 20
135.137
 10
2825.96
 20
136.039
 10
2824
 20
136.35
 10
2822.04
 20
136.039
 10
2820.27
 20
135.137
 10
2818.86
 20
133.732
 10
2817.96
 20
131.962
 10
2817.65
 20
130
 10
2817.96
 20
128.038
 10
2818.86
 20
126.268
 10
2820.27
 20
124.863
 10
2822.04
 20
123.961
 10
2824
 20
123.65
  0
LWPOLYLINE
100
AcDbEntity
  8
0
100
AcDbPolyline
 90
20
 70
1
 10
1225.96
 20
123.961
 10
1227.73
 20
124.863
 10
1229.14
 20
126.268
 10
1230.04
 20
128.038
 10
1230.35
 20
130
 10
1230.04
 20
131.962
 10
1229.14
 20
133.732
 10
1227.73
 20
135.137
 10
1225.96
 20
136.039
 10
1224
 20
136.35
 10
1222.04
 20
136.039
 10
1220.27
 20
135.137
 10
1218.86
 20
133.732
 10
1217.96
 20
131.962
 10
1217.65
 20
130
 10
1217.96
 20
128.038
 10
1218.86
 20
126.268
 10
1220.27
 20
124.863
 10
1222.04
 20
123.961
 10
1224
 20
123.65
  0
LWPOLYLINE
100
AcDbEntity
  8
0
100
AcDbPolyline
 90
20
 70
1
 10
1825.96
 20
123.961
 10
1827.73
 20
124.863
 10
1829.14
 20
126.268
 10
1830.04
 20
128.038
 10
1830.35
 20
130
 10
1830.04
 20
131.962
 10
1829.14
 20
133.732
 10
1827.73
 20
135.137
 10
1825.96
 20
136.039
 10
1824
 20
136.35
 10
1822.04
 20
136.039
 10
1820.27
 20
135.137
 10
1818.86
 20
133.732
 10
1817.96
 20
131.962
 10
1817.65
 20
130
 10
1817.96
 20
128.038
 10
1818.86
 20
126.268
 10
1820.27
 20
124.863
 10
1822.04
 20
123.961
 10
1824
 20
123.65
  0
LWPOLYLINE
100
AcDbEntity
  8
0
100
AcDbPolyline
 90
20
 70
1
 10
2025.96
 20
123.961
 10
2027.73
 20
124.863
 10
2029.14
 20
126.268
 10
2030.04
 20
128.038
 10
2030.35
 20
130
 10
2030.04
 20
131.962
 10
2029.14
 20
133.732
 10
2027.73
 20
135.137
 10
2025.96
 20
136.039
 10
2024
 20
136.35
 10
2022.04
 20
136.039
 10
2020.27
 20
135.137
 10
2018.86
 20
133.732
 10
2017.96
 20
131.962
 10
2017.65
 20
130
 10
2017.96
 20
128.038
 10
2018.86
 20
126.268
 10
2020.27
 20
124.863
 10
2022.04
 20
123.961
 10
2024
 20
123.65
  0
LWPOLYLINE
100
AcDbEntity
  8
0
100
AcDbPolyline
 90
20
 70
1
 10
1025.96
 20
123.961
 10
1027.73
 20
124.863
 10
1029.14
 20
126.268
 10
1030.04
 20
128.038
 10
1030.35
 20
130
 10
1030.04
 20
131.962
 10
1029.14
 20
133.732
 10
1027.73
 20
135.137
 10
1025.96
 20
136.039
 10
1024
 20
136.35
 10
1022.04
 20
136.039
 10
1020.27
 20
135.137
 10
1018.86
 20
133.732
 10
1017.96
 20
131.962
 10
1017.65
 20
130
 10
1017.96
 20
128.038
 10
1018.86
 20
126.268
 10
1020.27
 20
124.863
 10
1022.04
 20
123.961
 10
1024
 20
123.65
  0
LWPOLYLINE
100
AcDbEntity
  8
0
100
AcDbPolyline
 90
20
 70
1
 10
2625.96
 20
123.961
 10
2627.73
 20
124.863
 10
2629.14
 20
126.268
 10
2630.04
 20
128.038
 10
2630.35
 20
130
 10
2630.04
 20
131.962
 10
2629.14
 20
133.732
 10
2627.73
 20
135.137
 10
2625.96
 20
136.039
 10
2624
 20
136.35
 10
2622.04
 20
136.039
 10
2620.27
 20
135.137
 10
2618.86
 20
133.732
 10
2617.96
 20
131.962
 10
2617.65
 20
130
 10
2617.96
 20
128.038
 10
2618.86
 20
126.268
 10
2620.27
 20
124.863
 10
2622.04
 20
123.961
 10
2624
 20
123.65
  0
LWPOLYLINE
100
AcDbEntity
  8
0
100
AcDbPolyline
 90
20
 70
1
 10
2225.96
 20
123.961
 10
2227.73
 20
124.863
 10
2229.14
 20
126.268
 10
2230.04
 20
128.038
 10
2230.35
 20
130
 10
2230.04
 20
131.962
 10
2229.14
 20
133.732
 10
2227.73
 20
135.137
 10
2225.96
 20
136.039
 10
2224
 20
136.35
 10
2222.04
 20
136.039
 10
2220.27
 20
135.137
 10
2218.86
 20
133.732
 10
2217.96
 20
131.962
 10
2217.65
 20
130
 10
2217.96
 20
128.038
 10
2218.86
 20
126.268
 10
2220.27
 20
124.863
 10
2222.04
 20
123.961
 10
2224
 20
123.65
  0
LWPOLYLINE
100
AcDbEntity
  8
0
100
AcDbPolyline
 90
20
 70
1
 10
825.962
 20
123.961
 10
827.732
 20
124.863
 10
829.137
 20
126.268
 10
830.039
 20
128.038
 10
830.35
 20
130
 10
830.039
 20
131.962
 10
829.137
 20
133.732
 10
827.732
 20
135.137
 10
825.962
 20
136.039
 10
824
 20
136.35
 10
822.038
 20
136.039
 10
820.268
 20
135.137
 10
818.863
 20
133.732
 10
817.961
 20
131.962
 10
817.65
 20
130
 10
817.961
 20
128.038
 10
818.863
 20
126.268
 10
820.268
 20
124.863
 10
822.038
 20
123.961
 10
824
 20
123.65
  0
LWPOLYLINE
100
AcDbEntity
  8
0
100
AcDbPolyline
 90
20
 70
1
 10
625.962
 20
123.961
 10
627.732
 20
124.863
 10
629.137
 20
126.268
 10
630.039
 20
128.038
 10
630.35
 20
130
 10
630.039
 20
131.962
 10
629.137
 20
133.732
 10
627.732
 20
135.137
 10
625.962
 20
136.039
 10
624
 20
136.35
 10
622.038
 20
136.039
 10
620.268
 20
135.137
 10
618.863
 20
133.732
 10
617.961
 20
131.962
 10
617.65
 20
130
 10
617.961
 20
128.038
 10
618.863
 20
126.268
 10
620.268
 20
124.863
 10
622.038
 20
123.961
 10
624
 20
123.65
  0
LWPOLYLINE
100
AcDbEntity
  8
0
100
AcDbPolyline
 90
20
 70
1
 10
425.962
 20
123.961
 10
427.732
 20
124.863
 10
429.137
 20
126.268
 10
430.039
 20
128.038
 10
430.35
 20
130
 10
430.039
 20
131.962
 10
429.137
 20
133.732
 10
427.732
 20
135.137
 10
425.962
 20
136.039
 10
424
 20
136.35
 10
422.038
 20
136.039
 10
420.268
 20
135.137
 10
418.863
 20
133.732
 10
417.961
 20
131.962
 10
417.65
 20
130
 10
417.961
 20
128.038
 10
418.863
 20
126.268
 10
420.268
 20
124.863
 10
422.038
 20
123.961
 10
424
 20
123.65
  0
LWPOLYLINE
100
AcDbEntity
  8
0
100
AcDbPolyline
 90
20
 70
1
 10
225.962
 20
123.961
 10
227.732
 20
124.863
 10
229.137
 20
126.268
 10
230.039
 20
128.038
 10
230.35
 20
130
 10
230.039
 20
131.962
 10
229.137
 20
133.732
 10
227.732
 20
135.137
 10
225.962
 20
136.039
 10
224
 20
136.35
 10
222.038
 20
136.039
 10
220.268
 20
135.137
 10
218.863
 20
133.732
 10
217.961
 20
131.962
 10
217.65
 20
130
 10
217.961
 20
128.038
 10
218.863
 20
126.268
 10
220.268
 20
124.863
 10
222.038
 20
123.961
 10
224
 20
123.65
  0
LWPOLYLINE
100
AcDbEntity
  8
0
100
AcDbPolyline
 90
20
 70
1
 10
2425.96
 20
123.961
 10
2427.73
 20
124.863
 10
2429.14
 20
126.268
 10
2430.04
 20
128.038
 10
2430.35
 20
130
 10
2430.04
 20
131.962
 10
2429.14
 20
133.732
 10
2427.73
 20
135.137
 10
2425.96
 20
136.039
 10
2424
 20
136.35
 10
2422.04
 20
136.039
 10
2420.27
 20
135.137
 10
2418.86
 20
133.732
 10
2417.96
 20
131.962
 10
2417.65
 20
130
 10
2417.96
 20
128.038
 10
2418.86
 20
126.268
 10
2420.27
 20
124.863
 10
2422.04
 20
123.961
 10
2424
 20
123.65
  0
LWPOLYLINE
100
AcDbEntity
  8
0
100
AcDbPolyline
 90
20
 70
1
 10
1425.96
 20
123.961
 10
1427.73
 20
124.863
 10
1429.14
 20
126.268
 10
1430.04
 20
128.038
 10
1430.35
 20
130
 10
1430.04
 20
131.962
 10
1429.14
 20
133.732
 10
1427.73
 20
135.137
 10
1425.96
 20
136.039
 10
1424
 20
136.35
 10
1422.04
 20
136.039
 10
1420.27
 20
135.137
 10
1418.86
 20
133.732
 10
1417.96
 20
131.962
 10
1417.65
 20
130
 10
1417.96
 20
128.038
 10
1418.86
 20
126.268
 10
1420.27
 20
124.863
 10
1422.04
 20
123.961
 10
1424
 20
123.65
  0
LWPOLYLINE
100
AcDbEntity
  8
0
100
AcDbPolyline
 90
20
 70
1
 10
1625.96
 20
123.961
 10
1627.73
 20
124.863
 10
1629.14
 20
126.268
 10
1630.04
 20
128.038
 10
1630.35
 20
130
 10
1630.04
 20
131.962
 10
1629.14
 20
133.732
 10
1627.73
 20
135.137
 10
1625.96
 20
136.039
 10
1624
 20
136.35
 10
1622.04
 20
136.039
 10
1620.27
 20
135.137
 10
1618.86
 20
133.732
 10
1617.96
 20
131.962
 10
1617.65
 20
130
 10
1617.96
 20
128.038
 10
1618.86
 20
126.268
 10
1620.27
 20
124.863
 10
1622.04
 20
123.961
 10
1624
 20
123.65
  0
LWPOLYLINE
100
AcDbEntity
  8
0
100
AcDbPolyline
 90
20
 70
1
 10
350.962
 20
43.9608
 10
352.732
 20
44.8627
 10
354.137
 20
46.2676
 10
355.039
 20
48.0377
 10
355.35
 20
50
 10
355.039
 20
51.9623
 10
354.137
 20
53.7324
 10
352.732
 20
55.1373
 10
350.962
 20
56.0392
 10
349
 20
56.35
 10
347.038
 20
56.0392
 10
345.268
 20
55.1373
 10
343.863
 20
53.7324
 10
342.961
 20
51.9623
 10
342.65
 20
50
 10
342.961
 20
48.0377
 10
343.863
 20
46.2676
 10
345.268
 20
44.8627
 10
347.038
 20
43.9608
 10
349
 20
43.65
  0
LWPOLYLINE
100
AcDbEntity
  8
0
100
AcDbPolyline
 90
20
 70
1
 10
300.962
 20
43.9608
 10
302.732
 20
44.8627
 10
304.137
 20
46.2676
 10
305.039
 20
48.0377
 10
305.35
 20
50
 10
305.039
 20
51.9623
 10
304.137
 20
53.7324
 10
302.732
 20
55.1373
 10
300.962
 20
56.0392
 10
299
 20
56.35
 10
297.038
 20
56.0392
 10
295.268
 20
55.1373
 10
293.863
 20
53.7324
 10
292.961
 20
51.9623
 10
292.65
 20
50
 10
292.961
 20
48.0377
 10
293.863
 20
46.2676
 10
295.268
 20
44.8627
 10
297.038
 20
43.9608
 10
299
 20
43.65
  0
LWPOLYLINE
100
AcDbEntity
  8
0
100
AcDbPolyline
 90
20
 70
1
 10
1350.96
 20
43.9608
 10
1352.73
 20
44.8627
 10
1354.14
 20
46.2676
 10
1355.04
 20
48.0377
 10
1355.35
 20
50
 10
1355.04
 20
51.9623
 10
1354.14
 20
53.7324
 10
1352.73
 20
55.1373
 10
1350.96
 20
56.0392
 10
1349
 20
56.35
 10
1347.04
 20
56.0392
 10
1345.27
 20
55.1373
 10
1343.86
 20
53.7324
 10
1342.96
 20
51.9623
 10
1342.65
 20
50
 10
1342.96
 20
48.0377
 10
1343.86
 20
46.2676
 10
1345.27
 20
44.8627
 10
1347.04
 20
43.9608
 10
1349
 20
43.65
  0
LWPOLYLINE
100
AcDbEntity
  8
0
100
AcDbPolyline
 90
20
 70
1
 10
2550.96
 20
43.9608
 10
2552.73
 20
44.8627
 10
2554.14
 20
46.2676
 10
2555.04
 20
48.0377
 10
2555.35
 20
50
 10
2555.04
 20
51.9623
 10
2554.14
 20
53.7324
 10
2552.73
 20
55.1373
 10
2550.96
 20
56.0392
 10
2549
 20
56.35
 10
2547.04
 20
56.0392
 10
2545.27
 20
55.1373
 10
2543.86
 20
53.7324
 10
2542.96
 20
51.9623
 10
2542.65
 20
50
 10
2542.96
 20
48.0377
 10
2543.86
 20
46.2676
 10
2545.27
 20
44.8627
 10
2547.04
 20
43.9608
 10
2549
 20
43.65
  0
LWPOLYLINE
100
AcDbEntity
  8
0
100
AcDbPolyline
 90
20
 70
1
 10
1950.96
 20
43.9608
 10
1952.73
 20
44.8627
 10
1954.14
 20
46.2676
 10
1955.04
 20
48.0377
 10
1955.35
 20
50
 10
1955.04
 20
51.9623
 10
1954.14
 20
53.7324
 10
1952.73
 20
55.1373
 10
1950.96
 20
56.0392
 10
1949
 20
56.35
 10
1947.04
 20
56.0392
 10
1945.27
 20
55.1373
 10
1943.86
 20
53.7324
 10
1942.96
 20
51.9623
 10
1942.65
 20
50
 10
1942.96
 20
48.0377
 10
1943.86
 20
46.2676
 10
1945.27
 20
44.8627
 10
1947.04
 20
43.9608
 10
1949
 20
43.65
  0
LWPOLYLINE
100
AcDbEntity
  8
0
100
AcDbPolyline
 90
20
 70
1
 10
2350.96
 20
43.9608
 10
2352.73
 20
44.8627
 10
2354.14
 20
46.2676
 10
2355.04
 20
48.0377
 10
2355.35
 20
50
 10
2355.04
 20
51.9623
 10
2354.14
 20
53.7324
 10
2352.73
 20
55.1373
 10
2350.96
 20
56.0392
 10
2349
 20
56.35
 10
2347.04
 20
56.0392
 10
2345.27
 20
55.1373
 10
2343.86
 20
53.7324
 10
2342.96
 20
51.9623
 10
2342.65
 20
50
 10
2342.96
 20
48.0377
 10
2343.86
 20
46.2676
 10
2345.27
 20
44.8627
 10
2347.04
 20
43.9608
 10
2349
 20
43.65
  0
LWPOLYLINE
100
AcDbEntity
  8
0
100
AcDbPolyline
 90
20
 70
1
 10
2300.96
 20
43.9608
 10
2302.73
 20
44.8627
 10
2304.14
 20
46.2676
 10
2305.04
 20
48.0377
 10
2305.35
 20
50
 10
2305.04
 20
51.9623
 10
2304.14
 20
53.7324
 10
2302.73
 20
55.1373
 10
2300.96
 20
56.0392
 10
2299
 20
56.35
 10
2297.04
 20
56.0392
 10
2295.27
 20
55.1373
 10
2293.86
 20
53.7324
 10
2292.96
 20
51.9623
 10
2292.65
 20
50
 10
2292.96
 20
48.0377
 10
2293.86
 20
46.2676
 10
2295.27
 20
44.8627
 10
2297.04
 20
43.9608
 10
2299
 20
43.65
  0
LWPOLYLINE
100
AcDbEntity
  8
0
100
AcDbPolyline
 90
20
 70
1
 10
1500.96
 20
43.9608
 10
1502.73
 20
44.8627
 10
1504.14
 20
46.2676
 10
1505.04
 20
48.0377
 10
1505.35
 20
50
 10
1505.04
 20
51.9623
 10
1504.14
 20
53.7324
 10
1502.73
 20
55.1373
 10
1500.96
 20
56.0392
 10
1499
 20
56.35
 10
1497.04
 20
56.0392
 10
1495.27
 20
55.1373
 10
1493.86
 20
53.7324
 10
1492.96
 20
51.9623
 10
1492.65
 20
50
 10
1492.96
 20
48.0377
 10
1493.86
 20
46.2676
 10
1495.27
 20
44.8627
 10
1497.04
 20
43.9608
 10
1499
 20
43.65
  0
LWPOLYLINE
100
AcDbEntity
  8
0
100
AcDbPolyline
 90
20
 70
1
 10
1550.96
 20
43.9608
 10
1552.73
 20
44.8627
 10
1554.14
 20
46.2676
 10
1555.04
 20
48.0377
 10
1555.35
 20
50
 10
1555.04
 20
51.9623
 10
1554.14
 20
53.7324
 10
1552.73
 20
55.1373
 10
1550.96
 20
56.0392
 10
1549
 20
56.35
 10
1547.04
 20
56.0392
 10
1545.27
 20
55.1373
 10
1543.86
 20
53.7324
 10
1542.96
 20
51.9623
 10
1542.65
 20
50
 10
1542.96
 20
48.0377
 10
1543.86
 20
46.2676
 10
1545.27
 20
44.8627
 10
1547.04
 20
43.9608
 10
1549
 20
43.65
  0
LWPOLYLINE
100
AcDbEntity
  8
0
100
AcDbPolyline
 90
20
 70
1
 10
1300.96
 20
43.9608
 10
1302.73
 20
44.8627
 10
1304.14
 20
46.2676
 10
1305.04
 20
48.0377
 10
1305.35
 20
50
 10
1305.04
 20
51.9623
 10
1304.14
 20
53.7324
 10
1302.73
 20
55.1373
 10
1300.96
 20
56.0392
 10
1299
 20
56.35
 10
1297.04
 20
56.0392
 10
1295.27
 20
55.1373
 10
1293.86
 20
53.7324
 10
1292.96
 20
51.9623
 10
1292.65
 20
50
 10
1292.96
 20
48.0377
 10
1293.86
 20
46.2676
 10
1295.27
 20
44.8627
 10
1297.04
 20
43.9608
 10
1299
 20
43.65
  0
LWPOLYLINE
100
AcDbEntity
  8
0
100
AcDbPolyline
 90
20
 70
1
 10
950.962
 20
43.9608
 10
952.732
 20
44.8627
 10
954.137
 20
46.2676
 10
955.039
 20
48.0377
 10
955.35
 20
50
 10
955.039
 20
51.9623
 10
954.137
 20
53.7324
 10
952.732
 20
55.1373
 10
950.962
 20
56.0392
 10
949
 20
56.35
 10
947.038
 20
56.0392
 10
945.268
 20
55.1373
 10
943.863
 20
53.7324
 10
942.961
 20
51.9623
 10
942.65
 20
50
 10
942.961
 20
48.0377
 10
943.863
 20
46.2676
 10
945.268
 20
44.8627
 10
947.038
 20
43.9608
 10
949
 20
43.65
  0
LWPOLYLINE
100
AcDbEntity
  8
0
100
AcDbPolyline
 90
20
 70
1
 10
750.962
 20
43.9608
 10
752.732
 20
44.8627
 10
754.137
 20
46.2676
 10
755.039
 20
48.0377
 10
755.35
 20
50
 10
755.039
 20
51.9623
 10
754.137
 20
53.7324
 10
752.732
 20
55.1373
 10
750.962
 20
56.0392
 10
749
 20
56.35
 10
747.038
 20
56.0392
 10
745.268
 20
55.1373
 10
743.863
 20
53.7324
 10
742.961
 20
51.9623
 10
742.65
 20
50
 10
742.961
 20
48.0377
 10
743.863
 20
46.2676
 10
745.268
 20
44.8627
 10
747.038
 20
43.9608
 10
749
 20
43.65
  0
LWPOLYLINE
100
AcDbEntity
  8
0
100
AcDbPolyline
 90
20
 70
1
 10
700.962
 20
43.9608
 10
702.732
 20
44.8627
 10
704.137
 20
46.2676
 10
705.039
 20
48.0377
 10
705.35
 20
50
 10
705.039
 20
51.9623
 10
704.137
 20
53.7324
 10
702.732
 20
55.1373
 10
700.962
 20
56.0392
 10
699
 20
56.35
 10
697.038
 20
56.0392
 10
695.268
 20
55.1373
 10
693.863
 20
53.7324
 10
692.961
 20
51.9623
 10
692.65
 20
50
 10
692.961
 20
48.0377
 10
693.863
 20
46.2676
 10
695.268
 20
44.8627
 10
697.038
 20
43.9608
 10
699
 20
43.65
  0
LWPOLYLINE
100
AcDbEntity
  8
0
100
AcDbPolyline
 90
20
 70
1
 10
1150.96
 20
43.9608
 10
1152.73
 20
44.8627
 10
1154.14
 20
46.2676
 10
1155.04
 20
48.0377
 10
1155.35
 20
50
 10
1155.04
 20
51.9623
 10
1154.14
 20
53.7324
 10
1152.73
 20
55.1373
 10
1150.96
 20
56.0392
 10
1149
 20
56.35
 10
1147.04
 20
56.0392
 10
1145.27
 20
55.1373
 10
1143.86
 20
53.7324
 10
1142.96
 20
51.9623
 10
1142.65
 20
50
 10
1142.96
 20
48.0377
 10
1143.86
 20
46.2676
 10
1145.27
 20
44.8627
 10
1147.04
 20
43.9608
 10
1149
 20
43.65
  0
LWPOLYLINE
100
AcDbEntity
  8
0
100
AcDbPolyline
 90
20
 70
1
 10
2150.96
 20
43.9608
 10
2152.73
 20
44.8627
 10
2154.14
 20
46.2676
 10
2155.04
 20
48.0377
 10
2155.35
 20
50
 10
2155.04
 20
51.9623
 10
2154.14
 20
53.7324
 10
2152.73
 20
55.1373
 10
2150.96
 20
56.0392
 10
2149
 20
56.35
 10
2147.04
 20
56.0392
 10
2145.27
 20
55.1373
 10
2143.86
 20
53.7324
 10
2142.96
 20
51.9623
 10
2142.65
 20
50
 10
2142.96
 20
48.0377
 10
2143.86
 20
46.2676
 10
2145.27
 20
44.8627
 10
2147.04
 20
43.9608
 10
2149
 20
43.65
  0
LWPOLYLINE
100
AcDbEntity
  8
0
100
AcDbPolyline
 90
20
 70
1
 10
2100.96
 20
43.9608
 10
2102.73
 20
44.8627
 10
2104.14
 20
46.2676
 10
2105.04
 20
48.0377
 10
2105.35
 20
50
 10
2105.04
 20
51.9623
 10
2104.14
 20
53.7324
 10
2102.73
 20
55.1373
 10
2100.96
 20
56.0392
 10
2099
 20
56.35
 10
2097.04
 20
56.0392
 10
2095.27
 20
55.1373
 10
2093.86
 20
53.7324
 10
2092.96
 20
51.9623
 10
2092.65
 20
50
 10
2092.96
 20
48.0377
 10
2093.86
 20
46.2676
 10
2095.27
 20
44.8627
 10
2097.04
 20
43.9608
 10
2099
 20
43.65
  0
LWPOLYLINE
100
AcDbEntity
  8
0
100
AcDbPolyline
 90
20
 70
1
 10
1700.96
 20
43.9608
 10
1702.73
 20
44.8627
 10
1704.14
 20
46.2676
 10
1705.04
 20
48.0377
 10
1705.35
 20
50
 10
1705.04
 20
51.9623
 10
1704.14
 20
53.7324
 10
1702.73
 20
55.1373
 10
1700.96
 20
56.0392
 10
1699
 20
56.35
 10
1697.04
 20
56.0392
 10
1695.27
 20
55.1373
 10
1693.86
 20
53.7324
 10
1692.96
 20
51.9623
 10
1692.65
 20
50
 10
1692.96
 20
48.0377
 10
1693.86
 20
46.2676
 10
1695.27
 20
44.8627
 10
1697.04
 20
43.9608
 10
1699
 20
43.65
  0
LWPOLYLINE
100
AcDbEntity
  8
0
100
AcDbPolyline
 90
20
 70
1
 10
1750.96
 20
43.9608
 10
1752.73
 20
44.8627
 10
1754.14
 20
46.2676
 10
1755.04
 20
48.0377
 10
1755.35
 20
50
 10
1755.04
 20
51.9623
 10
1754.14
 20
53.7324
 10
1752.73
 20
55.1373
 10
1750.96
 20
56.0392
 10
1749
 20
56.35
 10
1747.04
 20
56.0392
 10
1745.27
 20
55.1373
 10
1743.86
 20
53.7324
 10
1742.96
 20
51.9623
 10
1742.65
 20
50
 10
1742.96
 20
48.0377
 10
1743.86
 20
46.2676
 10
1745.27
 20
44.8627
 10
1747.04
 20
43.9608
 10
1749
 20
43.65
  0
LWPOLYLINE
100
AcDbEntity
  8
0
100
AcDbPolyline
 90
20
 70
1
 10
1100.96
 20
43.9608
 10
1102.73
 20
44.8627
 10
1104.14
 20
46.2676
 10
1105.04
 20
48.0377
 10
1105.35
 20
50
 10
1105.04
 20
51.9623
 10
1104.14
 20
53.7324
 10
1102.73
 20
55.1373
 10
1100.96
 20
56.0392
 10
1099
 20
56.35
 10
1097.04
 20
56.0392
 10
1095.27
 20
55.1373
 10
1093.86
 20
53.7324
 10
1092.96
 20
51.9623
 10
1092.65
 20
50
 10
1092.96
 20
48.0377
 10
1093.86
 20
46.2676
 10
1095.27
 20
44.8627
 10
1097.04
 20
43.9608
 10
1099
 20
43.65
  0
LWPOLYLINE
100
AcDbEntity
  8
0
100
AcDbPolyline
 90
20
 70
1
 10
500.962
 20
43.9608
 10
502.732
 20
44.8627
 10
504.137
 20
46.2676
 10
505.039
 20
48.0377
 10
505.35
 20
50
 10
505.039
 20
51.9623
 10
504.137
 20
53.7324
 10
502.732
 20
55.1373
 10
500.962
 20
56.0392
 10
499
 20
56.35
 10
497.038
 20
56.0392
 10
495.268
 20
55.1373
 10
493.863
 20
53.7324
 10
492.961
 20
51.9623
 10
492.65
 20
50
 10
492.961
 20
48.0377
 10
493.863
 20
46.2676
 10
495.268
 20
44.8627
 10
497.038
 20
43.9608
 10
499
 20
43.65
  0
LWPOLYLINE
100
AcDbEntity
  8
0
100
AcDbPolyline
 90
20
 70
1
 10
550.962
 20
43.9608
 10
552.732
 20
44.8627
 10
554.137
 20
46.2676
 10
555.039
 20
48.0377
 10
555.35
 20
50
 10
555.039
 20
51.9623
 10
554.137
 20
53.7324
 10
552.732
 20
55.1373
 10
550.962
 20
56.0392
 10
549
 20
56.35
 10
547.038
 20
56.0392
 10
545.268
 20
55.1373
 10
543.863
 20
53.7324
 10
542.961
 20
51.9623
 10
542.65
 20
50
 10
542.961
 20
48.0377
 10
543.863
 20
46.2676
 10
545.268
 20
44.8627
 10
547.038
 20
43.9608
 10
549
 20
43.65
  0
LWPOLYLINE
100
AcDbEntity
  8
0
100
AcDbPolyline
 90
20
 70
1
 10
2700.96
 20
43.9608
 10
2702.73
 20
44.8627
 10
2704.14
 20
46.2676
 10
2705.04
 20
48.0377
 10
2705.35
 20
50
 10
2705.04
 20
51.9623
 10
2704.14
 20
53.7324
 10
2702.73
 20
55.1373
 10
2700.96
 20
56.0392
 10
2699
 20
56.35
 10
2697.04
 20
56.0392
 10
2695.27
 20
55.1373
 10
2693.86
 20
53.7324
 10
2692.96
 20
51.9623
 10
2692.65
 20
50
 10
2692.96
 20
48.0377
 10
2693.86
 20
46.2676
 10
2695.27
 20
44.8627
 10
2697.04
 20
43.9608
 10
2699
 20
43.65
  0
LWPOLYLINE
100
AcDbEntity
  8
0
100
AcDbPolyline
 90
20
 70
1
 10
2750.96
 20
43.9608
 10
2752.73
 20
44.8627
 10
2754.14
 20
46.2676
 10
2755.04
 20
48.0377
 10
2755.35
 20
50
 10
2755.04
 20
51.9623
 10
2754.14
 20
53.7324
 10
2752.73
 20
55.1373
 10
2750.96
 20
56.0392
 10
2749
 20
56.35
 10
2747.04
 20
56.0392
 10
2745.27
 20
55.1373
 10
2743.86
 20
53.7324
 10
2742.96
 20
51.9623
 10
2742.65
 20
50
 10
2742.96
 20
48.0377
 10
2743.86
 20
46.2676
 10
2745.27
 20
44.8627
 10
2747.04
 20
43.9608
 10
2749
 20
43.65
  0
LWPOLYLINE
100
AcDbEntity
  8
0
100
AcDbPolyline
 90
20
 70
1
 10
2500.96
 20
43.9608
 10
2502.73
 20
44.8627
 10
2504.14
 20
46.2676
 10
2505.04
 20
48.0377
 10
2505.35
 20
50
 10
2505.04
 20
51.9623
 10
2504.14
 20
53.7324
 10
2502.73
 20
55.1373
 10
2500.96
 20
56.0392
 10
2499
 20
56.35
 10
2497.04
 20
56.0392
 10
2495.27
 20
55.1373
 10
2493.86
 20
53.7324
 10
2492.96
 20
51.9623
 10
2492.65
 20
50
 10
2492.96
 20
48.0377
 10
2493.86
 20
46.2676
 10
2495.27
 20
44.8627
 10
2497.04
 20
43.9608
 10
2499
 20
43.65
  0
LWPOLYLINE
100
AcDbEntity
  8
0
100
AcDbPolyline
 90
20
 70
1
 10
1900.96
 20
43.9608
 10
1902.73
 20
44.8627
 10
1904.14
 20
46.2676
 10
1905.04
 20
48.0377
 10
1905.35
 20
50
 10
1905.04
 20
51.9623
 10
1904.14
 20
53.7324
 10
1902.73
 20
55.1373
 10
1900.96
 20
56.0392
 10
1899
 20
56.35
 10
1897.04
 20
56.0392
 10
1895.27
 20
55.1373
 10
1893.86
 20
53.7324
 10
1892.96
 20
51.9623
 10
1892.65
 20
50
 10
1892.96
 20
48.0377
 10
1893.86
 20
46.2676
 10
1895.27
 20
44.8627
 10
1897.04
 20
43.9608
 10
1899
 20
43.65
  0
LWPOLYLINE
100
AcDbEntity
  8
0
100
AcDbPolyline
 90
20
 70
1
 10
900.962
 20
43.9608
 10
902.732
 20
44.8627
 10
904.137
 20
46.2676
 10
905.039
 20
48.0377
 10
905.35
 20
50
 10
905.039
 20
51.9623
 10
904.137
 20
53.7324
 10
902.732
 20
55.1373
 10
900.962
 20
56.0392
 10
899
 20
56.35
 10
897.038
 20
56.0392
 10
895.268
 20
55.1373
 10
893.863
 20
53.7324
 10
892.961
 20
51.9623
 10
892.65
 20
50
 10
892.961
 20
48.0377
 10
893.863
 20
46.2676
 10
895.268
 20
44.8627
 10
897.038
 20
43.9608
 10
899
 20
43.65
  0
LWPOLYLINE
100
AcDbEntity
  8
0
100
AcDbPolyline
 90
18
 70
1
 10
326.778
 20
45.1881
 10
328.256
 20
46.4285
 10
329.221
 20
48.0997
 10
329.556
 20
50
 10
329.221
 20
51.9003
 10
328.256
 20
53.5715
 10
326.778
 20
54.8119
 10
324.965
 20
55.4718
 10
323.035
 20
55.4718
 10
321.222
 20
54.8119
 10
319.744
 20
53.5715
 10
318.779
 20
51.9003
 10
318.444
 20
50
 10
318.779
 20
48.0997
 10
319.744
 20
46.4285
 10
321.222
 20
45.1881
 10
323.035
 20
44.5282
 10
324.965
 20
44.5282
  0
LWPOLYLINE
100
AcDbEntity
  8
0
100
AcDbPolyline
 90
18
 70
1
 10
2526.78
 20
45.1881
 10
2528.26
 20
46.4285
 10
2529.22
 20
48.0997
 10
2529.56
 20
50
 10
2529.22
 20
51.9003
 10
2528.26
 20
53.5715
 10
2526.78
 20
54.8119
 10
2524.96
 20
55.4718
 10
2523.04
 20
55.4718
 10
2521.22
 20
54.8119
 10
2519.74
 20
53.5715
 10
2518.78
 20
51.9003
 10
2518.44
 20
50
 10
2518.78
 20
48.0997
 10
2519.74
 20
46.4285
 10
2521.22
 20
45.1881
 10
2523.04
 20
44.5282
 10
2524.96
 20
44.5282
  0
LWPOLYLINE
100
AcDbEntity
  8
0
100
AcDbPolyline
 90
18
 70
1
 10
1526.78
 20
45.1881
 10
1528.26
 20
46.4285
 10
1529.22
 20
48.0997
 10
1529.56
 20
50
 10
1529.22
 20
51.9003
 10
1528.26
 20
53.5715
 10
1526.78
 20
54.8119
 10
1524.96
 20
55.4718
 10
1523.04
 20
55.4718
 10
1521.22
 20
54.8119
 10
1519.74
 20
53.5715
 10
1518.78
 20
51.9003
 10
1518.44
 20
50
 10
1518.78
 20
48.0997
 10
1519.74
 20
46.4285
 10
1521.22
 20
45.1881
 10
1523.04
 20
44.5282
 10
1524.96
 20
44.5282
  0
LWPOLYLINE
100
AcDbEntity
  8
0
100
AcDbPolyline
 90
18
 70
1
 10
726.778
 20
45.1881
 10
728.256
 20
46.4285
 10
729.221
 20
48.0997
 10
729.556
 20
50
 10
729.221
 20
51.9003
 10
728.256
 20
53.5715
 10
726.778
 20
54.8119
 10
724.965
 20
55.4718
 10
723.035
 20
55.4718
 10
721.222
 20
54.8119
 10
719.744
 20
53.5715
 10
718.779
 20
51.9003
 10
718.444
 20
50
 10
718.779
 20
48.0997
 10
719.744
 20
46.4285
 10
721.222
 20
45.1881
 10
723.035
 20
44.5282
 10
724.965
 20
44.5282
  0
LWPOLYLINE
100
AcDbEntity
  8
0
100
AcDbPolyline
 90
18
 70
1
 10
926.778
 20
45.1881
 10
928.256
 20
46.4285
 10
929.221
 20
48.0997
 10
929.556
 20
50
 10
929.221
 20
51.9003
 10
928.256
 20
53.5715
 10
926.778
 20
54.8119
 10
924.965
 20
55.4718
 10
923.035
 20
55.4718
 10
921.222
 20
54.8119
 10
919.744
 20
53.5715
 10
918.779
 20
51.9003
 10
918.444
 20
50
 10
918.779
 20
48.0997
 10
919.744
 20
46.4285
 10
921.222
 20
45.1881
 10
923.035
 20
44.5282
 10
924.965
 20
44.5282
  0
LWPOLYLINE
100
AcDbEntity
  8
0
100
AcDbPolyline
 90
18
 70
1
 10
1126.78
 20
45.1881
 10
1128.26
 20
46.4285
 10
1129.22
 20
48.0997
 10
1129.56
 20
50
 10
1129.22
 20
51.9003
 10
1128.26
 20
53.5715
 10
1126.78
 20
54.8119
 10
1124.96
 20
55.4718
 10
1123.04
 20
55.4718
 10
1121.22
 20
54.8119
 10
1119.74
 20
53.5715
 10
1118.78
 20
51.9003
 10
1118.44
 20
50
 10
1118.78
 20
48.0997
 10
1119.74
 20
46.4285
 10
1121.22
 20
45.1881
 10
1123.04
 20
44.5282
 10
1124.96
 20
44.5282
  0
LWPOLYLINE
100
AcDbEntity
  8
0
100
AcDbPolyline
 90
18
 70
1
 10
2126.78
 20
45.1881
 10
2128.26
 20
46.4285
 10
2129.22
 20
48.0997
 10
2129.56
 20
50
 10
2129.22
 20
51.9003
 10
2128.26
 20
53.5715
 10
2126.78
 20
54.8119
 10
2124.96
 20
55.4718
 10
2123.04
 20
55.4718
 10
2121.22
 20
54.8119
 10
2119.74
 20
53.5715
 10
2118.78
 20
51.9003
 10
2118.44
 20
50
 10
2118.78
 20
48.0997
 10
2119.74
 20
46.4285
 10
2121.22
 20
45.1881
 10
2123.04
 20
44.5282
 10
2124.96
 20
44.5282
  0
LWPOLYLINE
100
AcDbEntity
  8
0
100
AcDbPolyline
 90
18
 70
1
 10
1726.78
 20
45.1881
 10
1728.26
 20
46.4285
 10
1729.22
 20
48.0997
 10
1729.56
 20
50
 10
1729.22
 20
51.9003
 10
1728.26
 20
53.5715
 10
1726.78
 20
54.8119
 10
1724.96
 20
55.4718
 10
1723.04
 20
55.4718
 10
1721.22
 20
54.8119
 10
1719.74
 20
53.5715
 10
1718.78
 20
51.9003
 10
1718.44
 20
50
 10
1718.78
 20
48.0997
 10
1719.74
 20
46.4285
 10
1721.22
 20
45.1881
 10
1723.04
 20
44.5282
 10
1724.96
 20
44.5282
  0
LWPOLYLINE
100
AcDbEntity
  8
0
100
AcDbPolyline
 90
18
 70
1
 10
526.778
 20
45.1881
 10
528.256
 20
46.4285
 10
529.221
 20
48.0997
 10
529.556
 20
50
 10
529.221
 20
51.9003
 10
528.256
 20
53.5715
 10
526.778
 20
54.8119
 10
524.965
 20
55.4718
 10
523.035
 20
55.4718
 10
521.222
 20
54.8119
 10
519.744
 20
53.5715
 10
518.779
 20
51.9003
 10
518.444
 20
50
 10
518.779
 20
48.0997
 10
519.744
 20
46.4285
 10
521.222
 20
45.1881
 10
523.035
 20
44.5282
 10
524.965
 20
44.5282
  0
LWPOLYLINE
100
AcDbEntity
  8
0
100
AcDbPolyline
 90
18
 70
1
 10
1926.78
 20
45.1881
 10
1928.26
 20
46.4285
 10
1929.22
 20
48.0997
 10
1929.56
 20
50
 10
1929.22
 20
51.9003
 10
1928.26
 20
53.5715
 10
1926.78
 20
54.8119
 10
1924.96
 20
55.4718
 10
1923.04
 20
55.4718
 10
1921.22
 20
54.8119
 10
1919.74
 20
53.5715
 10
1918.78
 20
51.9003
 10
1918.44
 20
50
 10
1918.78
 20
48.0997
 10
1919.74
 20
46.4285
 10
1921.22
 20
45.1881
 10
1923.04
 20
44.5282
 10
1924.96
 20
44.5282
  0
LWPOLYLINE
100
AcDbEntity
  8
0
100
AcDbPolyline
 90
18
 70
1
 10
1326.78
 20
45.1881
 10
1328.26
 20
46.4285
 10
1329.22
 20
48.0997
 10
1329.56
 20
50
 10
1329.22
 20
51.9003
 10
1328.26
 20
53.5715
 10
1326.78
 20
54.8119
 10
1324.96
 20
55.4718
 10
1323.04
 20
55.4718
 10
1321.22
 20
54.8119
 10
1319.74
 20
53.5715
 10
1318.78
 20
51.9003
 10
1318.44
 20
50
 10
1318.78
 20
48.0997
 10
1319.74
 20
46.4285
 10
1321.22
 20
45.1881
 10
1323.04
 20
44.5282
 10
1324.96
 20
44.5282
  0
LWPOLYLINE
100
AcDbEntity
  8
0
100
AcDbPolyline
 90
18
 70
1
 10
2326.78
 20
45.1881
 10
2328.26
 20
46.4285
 10
2329.22
 20
48.0997
 10
2329.56
 20
50
 10
2329.22
 20
51.9003
 10
2328.26
 20
53.5715
 10
2326.78
 20
54.8119
 10
2324.96
 20
55.4718
 10
2323.04
 20
55.4718
 10
2321.22
 20
54.8119
 10
2319.74
 20
53.5715
 10
2318.78
 20
51.9003
 10
2318.44
 20
50
 10
2318.78
 20
48.0997
 10
2319.74
 20
46.4285
 10
2321.22
 20
45.1881
 10
2323.04
 20
44.5282
 10
2324.96
 20
44.5282
  0
LWPOLYLINE
100
AcDbEntity
  8
0
100
AcDbPolyline
 90
18
 70
1
 10
2726.78
 20
45.1881
 10
2728.26
 20
46.4285
 10
2729.22
 20
48.0997
 10
2729.56
 20
50
 10
2729.22
 20
51.9003
 10
2728.26
 20
53.5715
 10
2726.78
 20
54.8119
 10
2724.96
 20
55.4718
 10
2723.04
 20
55.4718
 10
2721.22
 20
54.8119
 10
2719.74
 20
53.5715
 10
2718.78
 20
51.9003
 10
2718.44
 20
50
 10
2718.78
 20
48.0997
 10
2719.74
 20
46.4285
 10
2721.22
 20
45.1881
 10
2723.04
 20
44.5282
 10
2724.96
 20
44.5282
  0
ENDSEC
  0
EOF
